<svg width="11" height="13" viewBox="0 0 11 13" fill="none" xmlns="http://www.w3.org/2000/svg">
<path d="M0.136 3.712V1.648L5.048 0.608V12H2.824V3.008L0.136 3.712ZM8.07538 11.056C8.07538 10.6933 8.19804 10.3893 8.44338 10.144C8.69938 9.888 9.01404 9.76 9.38738 9.76C9.77138 9.76 10.086 9.888 10.3314 10.144C10.5767 10.3893 10.6994 10.6933 10.6994 11.056C10.6994 11.3973 10.5767 11.696 10.3314 11.952C10.086 12.208 9.77138 12.336 9.38738 12.336C9.01404 12.336 8.69938 12.208 8.44338 11.952C8.19804 11.696 8.07538 11.3973 8.07538 11.056ZM8.07538 5.04C8.07538 4.688 8.19804 4.384 8.44338 4.128C8.69938 3.872 9.01404 3.744 9.38738 3.744C9.77138 3.744 10.086 3.872 10.3314 4.128C10.5767 4.384 10.6994 4.688 10.6994 5.04C10.6994 5.392 10.5767 5.696 10.3314 5.952C10.086 6.208 9.77138 6.336 9.38738 6.336C9.01404 6.336 8.69938 6.208 8.44338 5.952C8.19804 5.696 8.07538 5.392 8.07538 5.04Z" fill="#868686"/>
</svg>
