<svg width="40" height="40" viewBox="0 0 40 40" fill="none" xmlns="http://www.w3.org/2000/svg">
<circle cx="20" cy="20" r="19" fill="#B3C68A" stroke="white" stroke-width="2"/>
<path fill-rule="evenodd" clip-rule="evenodd" d="M18.4878 9.00001C18.4856 9 18.4833 9 18.481 9.00001C18.4665 9.00211 18.4521 9.00494 18.4379 9.00848C18.4017 9.01393 18.3664 9.02385 18.3327 9.03807L8.36899 13.2213C8.30256 13.2322 8.23966 13.2583 8.18533 13.2973C8.131 13.3364 8.08676 13.3875 8.05617 13.4464C8.05499 13.4492 8.05384 13.452 8.05272 13.4548C8.0039 13.5426 7.98832 13.6445 8.00877 13.7424V26.3355C8.00884 26.3527 8.01 26.3699 8.01222 26.387C8.01219 26.3898 8.01219 26.3926 8.01222 26.3955C8.01366 26.4042 8.01538 26.413 8.01739 26.4217C8.02979 26.4921 8.06017 26.5583 8.10568 26.6141C8.15119 26.6698 8.21035 26.7133 8.27764 26.7406L18.3327 30.962C18.3808 30.9822 18.4322 30.9936 18.4844 30.9958C18.4907 30.9959 18.497 30.9959 18.5034 30.9958C18.5039 30.9958 18.5045 30.9958 18.5051 30.9958C18.5094 30.9958 18.5137 30.9958 18.518 30.9958C18.5238 30.9959 18.5295 30.9959 18.5352 30.9958C18.5441 30.996 18.5531 30.996 18.562 30.9958C18.6059 30.9918 18.6489 30.9813 18.6895 30.9645L24.1583 28.6677C24.5733 29.3757 25.1709 29.9641 25.8909 30.3735C26.611 30.7829 27.4282 30.9989 28.2603 31C30.8732 31 33 28.9122 33 26.3472C33 24.0352 31.2696 22.1174 29.0143 21.7613V13.7721C29.0313 13.7099 29.0336 13.6447 29.0211 13.5815C29.0085 13.5183 28.9815 13.4588 28.9419 13.4074C28.9088 13.3585 28.8656 13.317 28.8151 13.2854C28.7647 13.2538 28.7081 13.2329 28.6489 13.2239L18.6895 9.04148C18.6538 9.02611 18.6161 9.01559 18.5775 9.01019C18.5735 9.01013 18.5694 9.01013 18.5654 9.01019C18.5548 9.0098 18.5441 9.0098 18.5335 9.01019C18.5183 9.00939 18.5031 9.00939 18.4878 9.01019V9.00001ZM18.5111 9.88237L20.6242 10.7681L11.6704 14.5266C11.6622 14.5303 11.6542 14.5343 11.6463 14.5385L9.53151 13.6511L18.5111 9.88237ZM21.7212 11.2291L24.2832 12.3043L15.1623 16.1331C15.0751 16.1695 15.0025 16.233 14.9558 16.3139C14.909 16.3948 14.8907 16.4886 14.9038 16.5807C14.903 16.5917 14.9028 16.6026 14.9029 16.6136V21.1378L13.9687 19.7623C13.9105 19.6765 13.8223 19.6144 13.7207 19.5879C13.6191 19.5614 13.5112 19.5723 13.4172 19.6185L12.3176 20.1573V15.1764L21.7212 11.2291ZM25.3768 12.7637L27.4907 13.6511L18.5111 17.4215L16.3998 16.5341L25.3518 12.7755C25.3606 12.7719 25.3692 12.7679 25.3777 12.7637H25.3768ZM8.87053 14.2949L11.4558 15.3794V20.8434C11.4559 20.9155 11.4747 20.9863 11.5105 21.0491C11.5462 21.112 11.5977 21.1649 11.6601 21.2028C11.7225 21.2407 11.7937 21.2623 11.867 21.2656C11.9403 21.2689 12.0132 21.2537 12.0789 21.2216L13.462 20.5423L14.9512 22.735C14.9911 22.811 15.0535 22.8735 15.1303 22.9139C15.2071 22.9544 15.2946 22.9711 15.3812 22.9617C15.3963 22.9597 15.4112 22.9569 15.426 22.9533C15.4306 22.9533 15.4352 22.9533 15.4398 22.9533C15.4494 22.9508 15.4588 22.9479 15.4682 22.9448C15.509 22.9319 15.5477 22.913 15.5828 22.8889C15.6476 22.8447 15.6987 22.7838 15.7306 22.713C15.7625 22.6421 15.774 22.564 15.7638 22.4871V17.1898L18.0802 18.1617V29.9341L8.87053 26.0663V14.2974V14.2949ZM28.1526 14.2949V21.6945C27.101 21.7196 26.0877 22.0871 25.272 22.7391C24.4563 23.3911 23.8845 24.2908 23.6464 25.2966L22.5847 25.7407L20.0718 26.7964C19.9666 26.8404 19.8836 26.9236 19.8409 27.0276C19.7983 27.1317 19.7995 27.2482 19.8443 27.3514C19.8891 27.4546 19.9738 27.5361 20.0798 27.578C20.1858 27.6198 20.3045 27.6187 20.4096 27.5748L22.9225 26.519L23.524 26.2677C23.524 26.2922 23.5206 26.3168 23.5206 26.3422C23.5206 26.887 23.6223 27.4081 23.7981 27.8936L18.942 29.9324V18.1601L28.1526 14.2949ZM28.2603 22.5345C30.4069 22.5345 32.1382 24.2349 32.1382 26.3413C32.1382 28.4495 30.4069 30.1482 28.2603 30.1482C27.7508 30.149 27.2461 30.0511 26.7752 29.8601C26.3043 29.6691 25.8764 29.3888 25.5161 29.0351C25.1559 28.6815 24.8702 28.2614 24.6757 27.7992C24.4811 27.3369 24.3814 26.8415 24.3823 26.3413C24.3823 24.2349 26.1136 22.5345 28.2603 22.5345ZM22.7398 24.0174C22.6862 24.02 22.6336 24.0324 22.5847 24.0539L20.0718 25.1096C20.0164 25.129 19.9657 25.1593 19.9228 25.1987C19.8798 25.2381 19.8455 25.2857 19.822 25.3385C19.7985 25.3914 19.7862 25.4484 19.786 25.5061C19.7857 25.5638 19.7975 25.621 19.8206 25.674C19.8437 25.7271 19.8776 25.7749 19.9202 25.8146C19.9628 25.8543 20.0132 25.8851 20.0684 25.9049C20.1236 25.9248 20.1823 25.9335 20.241 25.9302C20.2996 25.927 20.357 25.912 20.4096 25.8862L22.9225 24.8321C23.0169 24.7947 23.0948 24.7256 23.1423 24.6371C23.1898 24.5487 23.2038 24.4467 23.1819 24.349C23.16 24.2514 23.1036 24.1645 23.0227 24.1038C22.9417 24.0431 22.8415 24.0125 22.7398 24.0174ZM30.8232 24.4531C30.7256 24.4528 30.6308 24.485 30.5543 24.5445L27.2115 27.0485L26.0852 25.695C26.013 25.6081 25.9085 25.5529 25.7948 25.5415C25.6811 25.5302 25.5675 25.5636 25.4789 25.6345C25.3904 25.7054 25.3341 25.808 25.3226 25.9196C25.311 26.0312 25.3451 26.1428 25.4173 26.2297L27.0719 28.2177L31.0774 25.2171C31.1505 25.1644 31.2048 25.0903 31.2326 25.0055C31.2603 24.9207 31.2601 24.8294 31.2319 24.7447C31.2038 24.6601 31.1491 24.5863 31.0757 24.534C31.0023 24.4816 30.9139 24.4533 30.8232 24.4531Z" fill="white"/>
</svg>
