<svg width="14" height="13" viewBox="0 0 14 13" fill="none" xmlns="http://www.w3.org/2000/svg">
<path d="M0.32 12L5.408 6.688C5.696 6.37867 5.94133 6.09067 6.144 5.824C6.34667 5.55733 6.50133 5.29067 6.608 5.024C6.71467 4.75733 6.768 4.48 6.768 4.192C6.768 3.98933 6.73067 3.792 6.656 3.6C6.58133 3.408 6.46933 3.23733 6.32 3.088C6.17067 2.93867 5.98933 2.82133 5.776 2.736C5.56267 2.64 5.31733 2.592 5.04 2.592C4.64533 2.592 4.304 2.688 4.016 2.88C3.73867 3.06133 3.52 3.32267 3.36 3.664C3.21067 4.00533 3.136 4.4 3.136 4.848H0.896C0.896 4.048 1.056 3.328 1.376 2.688C1.696 2.048 2.16533 1.54133 2.784 1.168C3.41333 0.783999 4.18133 0.591999 5.088 0.591999C5.76 0.591999 6.34667 0.698666 6.848 0.912C7.36 1.11467 7.78133 1.38667 8.112 1.728C8.45333 2.05867 8.704 2.42667 8.864 2.832C9.03467 3.23733 9.12 3.64267 9.12 4.048C9.12 4.64533 8.976 5.20533 8.688 5.728C8.4 6.25067 8.02133 6.72533 7.552 7.152L4.64 9.904H9.328V12H0.32ZM11.2785 11.056C11.2785 10.6933 11.4012 10.3893 11.6465 10.144C11.9025 9.888 12.2172 9.76 12.5905 9.76C12.9745 9.76 13.2892 9.888 13.5345 10.144C13.7798 10.3893 13.9025 10.6933 13.9025 11.056C13.9025 11.3973 13.7798 11.696 13.5345 11.952C13.2892 12.208 12.9745 12.336 12.5905 12.336C12.2172 12.336 11.9025 12.208 11.6465 11.952C11.4012 11.696 11.2785 11.3973 11.2785 11.056ZM11.2785 5.04C11.2785 4.688 11.4012 4.384 11.6465 4.128C11.9025 3.872 12.2172 3.744 12.5905 3.744C12.9745 3.744 13.2892 3.872 13.5345 4.128C13.7798 4.384 13.9025 4.688 13.9025 5.04C13.9025 5.392 13.7798 5.696 13.5345 5.952C13.2892 6.208 12.9745 6.336 12.5905 6.336C12.2172 6.336 11.9025 6.208 11.6465 5.952C11.4012 5.696 11.2785 5.392 11.2785 5.04Z" fill="black"/>
</svg>
