<svg width="42" height="42" viewBox="0 0 42 42" fill="none" xmlns="http://www.w3.org/2000/svg">
<circle cx="21" cy="21" r="19" fill="#80A03C" stroke="white" stroke-width="2"/>
<path d="M14.153 30.4286H21.4247V31.2143H14.153C13.8472 31.2143 13.5539 31.0901 13.3377 30.8691C13.1215 30.6481 13 30.3483 13 30.0357V11.1786C13 10.866 13.1215 10.5662 13.3377 10.3452C13.5539 10.1242 13.8472 10 14.153 10H26.4519C26.7577 10 27.0509 10.1242 27.2672 10.3452C27.4834 10.5662 27.6049 10.866 27.6049 11.1786V22.9643H26.8362V11.1786C26.8362 11.0744 26.7957 10.9745 26.7236 10.9008C26.6516 10.8271 26.5538 10.7857 26.4519 10.7857H14.153C14.0511 10.7857 13.9533 10.8271 13.8812 10.9008C13.8092 10.9745 13.7687 11.0744 13.7687 11.1786V30.0357C13.7687 30.1399 13.8092 30.2398 13.8812 30.3135C13.9533 30.3872 14.0511 30.4286 14.153 30.4286ZM30.9217 28.1736L30.0647 30.8214C29.9849 31.0519 29.837 31.2514 29.6415 31.3922C29.4459 31.533 29.2123 31.6081 28.9731 31.6071H25.2989C25.2989 31.7113 25.2584 31.8113 25.1863 31.8849C25.1142 31.9586 25.0164 32 24.9145 32H22.6085C22.5065 32 22.4088 31.9586 22.3367 31.8849C22.2646 31.8113 22.2241 31.7113 22.2241 31.6071V26.1071C22.2241 26.003 22.2646 25.903 22.3367 25.8294C22.4088 25.7557 22.5065 25.7143 22.6085 25.7143H24.9145C25.0164 25.7143 25.1142 25.7557 25.1863 25.8294C25.2584 25.903 25.2989 26.003 25.2989 26.1071H25.737C25.8645 26.1072 25.9888 26.0663 26.0923 25.9902C26.1958 25.914 26.2732 25.8065 26.3135 25.6829L26.8554 24.0171C26.8812 23.9391 26.9303 23.8713 26.9959 23.8234C27.0614 23.7755 27.14 23.7498 27.2205 23.75H27.5165C27.7192 23.75 27.919 23.7992 28.0994 23.8936C28.2798 23.988 28.4358 24.1248 28.5544 24.2928C28.673 24.4608 28.7508 24.6552 28.7815 24.86C28.8122 25.0648 28.7949 25.2741 28.731 25.4707L28.5235 26.1071H29.4651C29.7083 26.1075 29.948 26.1669 30.1644 26.2804C30.3808 26.3939 30.5678 26.5582 30.7099 26.7599C30.8521 26.9616 30.9455 27.1949 30.9823 27.4407C31.0191 27.6864 30.9984 27.9376 30.9217 28.1736ZM24.5302 31.2143V26.5H22.9928V31.2143H24.5302ZM30.0877 27.2189C30.0166 27.1181 29.923 27.036 29.8148 26.9793C29.7066 26.9226 29.5867 26.893 29.4651 26.8929H27.9892C27.9283 26.8926 27.8682 26.8775 27.8141 26.8488C27.76 26.8201 27.7133 26.7786 27.6779 26.7279C27.6422 26.6775 27.6187 26.6192 27.6093 26.5577C27.6 26.4962 27.605 26.4334 27.6241 26.3743L28.0084 25.2232C28.0351 25.1441 28.0427 25.0596 28.0305 24.9768C28.0183 24.894 27.9867 24.8155 27.9383 24.748C27.89 24.6804 27.8264 24.6258 27.7529 24.5889C27.6795 24.5519 27.5983 24.5337 27.5165 24.5357H27.4973L27.0438 25.9304C26.9525 26.2108 26.7771 26.4547 26.5426 26.6275C26.308 26.8003 26.0261 26.8931 25.737 26.8929H25.2989V30.8214H28.9731C29.0537 30.8216 29.1323 30.796 29.1978 30.748C29.2634 30.7001 29.3125 30.6323 29.3383 30.5543L30.1915 27.9261C30.2302 27.8082 30.2409 27.6827 30.2229 27.5597C30.2048 27.4368 30.1585 27.32 30.0877 27.2189ZM19.1494 19.8214C19.1494 19.9256 19.1089 20.0255 19.0369 20.0992C18.9648 20.1729 18.867 20.2143 18.7651 20.2143H15.6904C15.5884 20.2143 15.4907 20.1729 15.4186 20.0992C15.3465 20.0255 15.306 19.9256 15.306 19.8214V17.4643C15.306 17.3601 15.3465 17.2602 15.4186 17.1865C15.4907 17.1128 15.5884 17.0714 15.6904 17.0714H18.7651C18.867 17.0714 18.9648 17.1128 19.0369 17.1865C19.1089 17.2602 19.1494 17.3601 19.1494 17.4643V19.8214ZM18.3807 17.8571H16.0747V19.4286H18.3807V17.8571ZM20.6868 19.4286V20.2143H22.6085V19.4286H20.6868ZM25.2989 17.0714H20.6868V17.8571H25.2989V17.0714ZM19.1494 22.1786V24.5357C19.1494 24.6399 19.1089 24.7398 19.0369 24.8135C18.9648 24.8872 18.867 24.9286 18.7651 24.9286H15.6904C15.5884 24.9286 15.4907 24.8872 15.4186 24.8135C15.3465 24.7398 15.306 24.6399 15.306 24.5357V22.1786C15.306 22.0744 15.3465 21.9745 15.4186 21.9008C15.4907 21.8271 15.5884 21.7857 15.6904 21.7857H18.7651C18.867 21.7857 18.9648 21.8271 19.0369 21.9008C19.1089 21.9745 19.1494 22.0744 19.1494 22.1786ZM18.3807 22.5714H16.0747V24.1429H18.3807V22.5714ZM20.6868 24.9286H22.6085V24.1429H20.6868V24.9286ZM25.2989 21.7857H20.6868V22.5714H25.2989V21.7857ZM19.1494 15.1071C19.1494 15.2113 19.1089 15.3113 19.0369 15.3849C18.9648 15.4586 18.867 15.5 18.7651 15.5H15.6904C15.5884 15.5 15.4907 15.4586 15.4186 15.3849C15.3465 15.3113 15.306 15.2113 15.306 15.1071V12.75C15.306 12.6458 15.3465 12.5459 15.4186 12.4722C15.4907 12.3985 15.5884 12.3571 15.6904 12.3571H18.7651C18.867 12.3571 18.9648 12.3985 19.0369 12.4722C19.1089 12.5459 19.1494 12.6458 19.1494 12.75V15.1071ZM18.3807 13.1429H16.0747V14.7143H18.3807V13.1429ZM20.6868 14.7143V15.5H22.6085V14.7143H20.6868ZM25.2989 12.3571H20.6868V13.1429H25.2989V12.3571Z" fill="white"/>
</svg>
