<svg width="14" height="13" viewBox="0 0 14 13" fill="none" xmlns="http://www.w3.org/2000/svg">
<path d="M4.288 6.544V5.44C4.61867 5.44 4.912 5.39733 5.168 5.312C5.43467 5.22667 5.65867 5.10933 5.84 4.96C6.02133 4.8 6.16 4.624 6.256 4.432C6.36267 4.22933 6.416 4.02133 6.416 3.808C6.416 3.54133 6.36267 3.30667 6.256 3.104C6.14933 2.90133 5.99467 2.74667 5.792 2.64C5.58933 2.53333 5.328 2.48 5.008 2.48C4.56 2.48 4.18133 2.61867 3.872 2.896C3.57333 3.16267 3.424 3.504 3.424 3.92H1.296C1.296 3.28 1.45067 2.71467 1.76 2.224C2.08 1.72267 2.51733 1.328 3.072 1.04C3.62667 0.752 4.272 0.608 5.008 0.608C5.78667 0.608 6.448 0.746666 6.992 1.024C7.54667 1.30133 7.968 1.66933 8.256 2.128C8.544 2.58667 8.688 3.09867 8.688 3.664C8.688 4.272 8.496 4.79467 8.112 5.232C7.728 5.65867 7.20533 5.984 6.544 6.208C5.88267 6.432 5.13067 6.544 4.288 6.544ZM4.912 12.224C4.272 12.224 3.70133 12.128 3.2 11.936C2.69867 11.744 2.272 11.4827 1.92 11.152C1.568 10.8107 1.296 10.4267 1.104 10C0.912 9.56267 0.816 9.104 0.816 8.624H3.088C3.088 8.98667 3.17333 9.296 3.344 9.552C3.51467 9.808 3.744 10.0053 4.032 10.144C4.32 10.272 4.63467 10.336 4.976 10.336C5.328 10.336 5.632 10.2773 5.888 10.16C6.15467 10.032 6.36267 9.85067 6.512 9.616C6.66133 9.38133 6.736 9.088 6.736 8.736C6.736 8.48 6.68267 8.24533 6.576 8.032C6.46933 7.808 6.30933 7.62133 6.096 7.472C5.89333 7.32267 5.63733 7.21067 5.328 7.136C5.02933 7.05067 4.68267 7.008 4.288 7.008V5.792C4.97067 5.792 5.59467 5.85067 6.16 5.968C6.736 6.08533 7.23733 6.27733 7.664 6.544C8.09067 6.8 8.42133 7.13067 8.656 7.536C8.89067 7.93067 9.008 8.41067 9.008 8.976C9.008 9.616 8.83733 10.1813 8.496 10.672C8.16533 11.1627 7.69067 11.5467 7.072 11.824C6.464 12.0907 5.744 12.224 4.912 12.224ZM10.7629 11.056C10.7629 10.6933 10.8855 10.3893 11.1309 10.144C11.3869 9.888 11.7015 9.76 12.0749 9.76C12.4589 9.76 12.7735 9.888 13.0189 10.144C13.2642 10.3893 13.3869 10.6933 13.3869 11.056C13.3869 11.3973 13.2642 11.696 13.0189 11.952C12.7735 12.208 12.4589 12.336 12.0749 12.336C11.7015 12.336 11.3869 12.208 11.1309 11.952C10.8855 11.696 10.7629 11.3973 10.7629 11.056ZM10.7629 5.04C10.7629 4.688 10.8855 4.384 11.1309 4.128C11.3869 3.872 11.7015 3.744 12.0749 3.744C12.4589 3.744 12.7735 3.872 13.0189 4.128C13.2642 4.384 13.3869 4.688 13.3869 5.04C13.3869 5.392 13.2642 5.696 13.0189 5.952C12.7735 6.208 12.4589 6.336 12.0749 6.336C11.7015 6.336 11.3869 6.208 11.1309 5.952C10.8855 5.696 10.7629 5.392 10.7629 5.04Z" fill="#80A03C"/>
</svg>
