<svg width="42" height="42" viewBox="0 0 42 42" fill="none" xmlns="http://www.w3.org/2000/svg">
<circle cx="21" cy="21" r="19" fill="#80A03C" stroke="white" stroke-width="2"/>
<g clip-path="url(#clip0_2641_19108)">
<path d="M18.6824 23.4346C18.66 23.4577 18.6389 23.4794 18.6218 23.4966C18.6212 23.497 18.6206 23.4973 18.6199 23.4976C18.5907 23.5126 18.5482 23.5336 18.4967 23.5571C18.3915 23.6049 18.2587 23.6582 18.1306 23.6915C17.5985 23.8299 17.051 23.9 16.5014 23.8996H16.5011C14.5858 23.8996 12.762 23.0615 11.7218 21.6486L11.7218 21.6486L11.7197 21.6458C11.1287 20.8585 10.7173 19.9514 10.5145 18.9881C10.3117 18.0249 10.3223 17.0288 10.5456 16.0701L10.5457 16.0701L10.5468 16.0648C10.8578 14.6354 11.6312 13.7169 12.8608 12.6706C12.7623 13.2111 12.8456 13.6914 13.06 14.1107C13.2817 14.5445 13.6329 14.8928 14.0206 15.1772C14.6699 15.6535 15.4927 15.9978 16.1376 16.2677C16.2515 16.3154 16.3598 16.3607 16.4606 16.404C17.7971 16.9783 18.6794 17.7465 19.157 18.6809C19.6338 19.6137 19.7334 20.7636 19.4054 22.154C19.3682 22.2968 19.2618 22.5459 19.1279 22.7993C18.9946 23.0516 18.8679 23.2435 18.8016 23.3148C18.7955 23.3203 18.7901 23.3255 18.7864 23.3291C18.7771 23.3381 18.7663 23.349 18.7559 23.3595C18.7367 23.3789 18.7127 23.4036 18.6895 23.4274L18.6824 23.4346Z" stroke="white" stroke-width="0.75"/>
<path d="M25.4642 18.9119L24.9886 16.3653L24.9885 16.3649C24.9513 16.1667 24.8478 15.987 24.6949 15.8554C24.5421 15.7238 24.349 15.6481 24.1475 15.6407L24.1475 15.6405L24.1347 15.6404C23.9328 15.6399 23.7366 15.7077 23.578 15.8327C23.4196 15.9576 23.3081 16.1322 23.2613 16.3284C23.2613 16.3287 23.2612 16.3289 23.2612 16.3292L22.6811 18.7342H20.7356C20.1927 17.1285 18.9247 15.8984 17.028 15.0834L17.0275 15.0832C16.9177 15.0362 16.8021 14.9876 16.6837 14.9379L16.6834 14.9378C15.8851 14.6031 15.2147 14.2939 14.7727 13.9412C14.5558 13.7682 14.4143 13.6002 14.3365 13.4343C14.2622 13.2758 14.2369 13.1006 14.2832 12.8867L14.2832 12.8865C14.3393 12.6264 14.3203 12.3558 14.2285 12.1062C14.203 12.0367 14.1721 11.9696 14.1362 11.9055C15.1447 11.4757 16.2516 11.3185 17.3451 11.454C18.5952 11.6089 19.7689 12.1392 20.7115 12.9747L20.7115 12.9748L20.7144 12.9773C20.7954 13.0477 20.8992 13.0864 21.0066 13.0864C21.1139 13.0864 21.2177 13.0477 21.2988 12.9773L21.2988 12.9773L21.3016 12.9748C22.5124 11.9017 24.093 11.3414 25.7093 11.4122C27.3254 11.483 28.8507 12.1792 29.9631 13.3537C30.6632 14.0996 31.1662 15.0082 31.4266 15.9975C31.6622 16.8925 31.6925 17.8279 31.5169 18.734H28.1521L27.6022 17.4718L27.6016 17.4705C27.5331 17.3149 27.4211 17.1824 27.279 17.089C27.1369 16.9955 26.9706 16.9452 26.8008 16.944L26.8008 16.9439L26.7948 16.944C26.6248 16.9454 26.4588 16.996 26.3169 17.0895C26.1762 17.1822 26.0651 17.3133 25.9966 17.4671C25.9879 17.4859 25.9807 17.5043 25.9793 17.508L25.979 17.5087L25.9789 17.5086L25.9752 17.5188L25.4642 18.9119Z" stroke="white" stroke-width="0.75"/>
<path d="M26.8427 19.3282L26.8757 19.4039L26.8756 19.4039L26.8789 19.4111C26.8904 19.4361 26.9712 19.6063 27.1154 19.7763C27.2508 19.9359 27.5075 20.1719 27.875 20.1719H31.0655C30.7482 20.8798 30.3027 21.5248 29.75 22.0734L29.7499 22.0735L21.2819 30.4832C21.2078 30.5542 21.1091 30.5939 21.0065 30.5939C20.9038 30.5939 20.8051 30.5542 20.7311 30.4832L15.4846 25.2729C15.8212 25.3158 16.1606 25.3374 16.5008 25.3372C16.5009 25.3372 16.5011 25.3372 16.5012 25.3372L16.501 24.9622M26.8427 19.3282L18.4937 25.0827C18.7152 25.0313 18.7421 25.0251 18.8695 24.9725L18.8836 24.9667L18.8972 24.9598C19.7211 24.5384 20.2255 24.0483 20.5388 23.3068L20.5389 23.3068L20.5423 23.2982C20.6455 23.0362 20.7322 22.7679 20.8017 22.4949L20.8018 22.4946C20.9946 21.7355 21.0658 20.9516 21.0137 20.1719H20.6378C20.6905 20.9204 20.6235 21.6734 20.4383 22.4023C20.3727 22.66 20.2909 22.9134 20.1934 23.1608C19.9216 23.8039 19.4903 24.2353 18.7265 24.6259C18.6954 24.6387 18.6741 24.6475 18.6524 24.6551C18.605 24.6719 18.5556 24.6834 18.3982 24.7199M26.8427 19.3282L26.1135 21.3158L26.1115 21.3213L26.1115 21.3212C26.1073 21.332 26.1011 21.348 26.0929 21.366C26.0248 21.5203 25.9138 21.6518 25.7731 21.7448C25.6314 21.8384 25.4657 21.889 25.2959 21.8906L25.2929 21.8906C25.261 21.8907 25.229 21.889 25.1973 21.8855L25.1935 21.8851L25.1935 21.8851C25.0055 21.8627 24.8295 21.7811 24.691 21.652C24.5524 21.5229 24.4586 21.3531 24.4231 21.1671L24.4228 21.1656L24.052 19.1804L26.8427 19.3282ZM16.501 24.9622C17.1411 24.9626 17.7787 24.8812 18.3982 24.7199M16.501 24.9622C16.0059 24.9625 15.5125 24.9145 15.0278 24.8192L16.501 24.9622ZM18.3982 24.7199L18.4829 25.0852L18.4877 25.0841C18.4894 25.0836 18.491 25.0832 18.4927 25.0828L18.3982 24.7199ZM30.0142 22.3396C30.6394 21.719 31.1351 20.9821 31.4742 20.1719L30.0142 22.3396ZM30.0142 22.3396L21.5442 30.7511L30.0142 22.3396Z" stroke="white" stroke-width="0.75"/>
</g>
<defs>
<clipPath id="clip0_2641_19108">
<rect width="22" height="22" fill="white" transform="translate(10 10)"/>
</clipPath>
</defs>
</svg>
