<svg width="150" height="150" viewBox="0 0 150 150" fill="none" xmlns="http://www.w3.org/2000/svg">
<path opacity="0.89" d="M150 75C150 116.421 116.421 150 75 150C33.5786 150 0 116.421 0 75C0 33.5786 33.5786 0 75 0C116.421 0 150 33.5786 150 75ZM10.574 75C10.574 110.582 39.4185 139.426 75 139.426C110.582 139.426 139.426 110.582 139.426 75C139.426 39.4185 110.582 10.574 75 10.574C39.4185 10.574 10.574 39.4185 10.574 75Z" fill="#E9F7CD" fill-opacity="0.83"/>
<path d="M150 75C150 116.421 116.421 150 75 150C33.5786 150 0 116.421 0 75C0 33.5786 33.5786 0 75 0C116.421 0 150 33.5786 150 75ZM10.465 75C10.465 110.642 39.3583 139.535 75 139.535C110.642 139.535 139.535 110.642 139.535 75C139.535 39.3583 110.642 10.465 75 10.465C39.3583 10.465 10.465 39.3583 10.465 75Z" fill="#80A03C"/>
<path d="M75 138.636C110.145 138.636 138.636 110.146 138.636 75.0001C138.636 39.8547 110.145 11.3638 75 11.3638C39.8546 11.3638 11.3636 39.8547 11.3636 75.0001C11.3636 110.146 39.8546 138.636 75 138.636Z" fill="#80A03C"/>
<path d="M36.3638 78.3281L59.4874 99.6019" stroke="white" stroke-width="6"/>
</svg>
