<svg width="78" height="76" viewBox="0 0 78 76" fill="none" xmlns="http://www.w3.org/2000/svg">
<path d="M29.5094 68.4507C29.408 69.2245 29.3338 69.9612 29.2152 70.688C28.7529 73.5408 26.3475 75.4863 23.5565 75.2762C20.6938 75.0611 18.8471 72.9771 18.8941 69.9364C18.9188 68.2579 19.4058 66.6955 20.3576 65.2963C20.5628 64.9947 20.7877 64.7054 21.0918 64.2901C19.6407 64.1072 18.2909 64.5299 16.9238 64.2951C13.9251 63.7784 12.6099 61.9688 13.2008 58.9429C13.8237 55.7341 16.0289 54.236 18.9633 55.032C19.4676 55.168 19.962 55.3311 20.5529 55.5091C20.4293 54.4758 20.0115 53.5512 20.1178 52.5648C20.1746 52.0358 20.234 51.5068 20.3155 50.9802C20.449 50.0952 21.3192 49.4129 21.3662 48.6935C21.4132 47.9667 20.0881 47.759 19.6505 46.9754C18.9831 45.7813 19.5146 44.617 20.8841 44.4365C21.0473 44.4142 21.2129 44.4167 21.3786 44.4142C23.7048 44.4142 24.2784 44.1052 24.7357 41.7888C25.2746 39.0621 26.0163 36.3873 26.3302 33.5913C26.5403 31.7248 26.1621 30.909 24.7184 29.7521C22.2512 27.7719 21.3365 24.8301 22.1869 21.7375C22.6418 20.0861 22.2932 18.8921 21.2846 17.4261C20.8396 20.4989 18.9608 23.0254 19.3514 26.1156C19.433 26.7534 19.5418 27.1885 20.2389 27.5395C23.109 28.9882 25.0645 34.3848 23.9372 37.3959C23.7073 38.009 23.3686 38.0906 22.8025 37.9496C19.3292 37.0869 16.8694 32.6371 18.0041 29.2502C18.3568 28.1988 18.4458 27.0591 18.2711 25.8313C17.8138 25.8461 17.8311 26.2812 17.6976 26.5359C16.9188 28.034 16.3404 29.6211 15.7347 31.1933C15.1463 32.7162 14.8596 33.9745 16.4763 35.255C17.9547 36.4243 18.2587 38.3847 18.2612 40.224C18.2637 43.5243 17.1438 46.4117 14.8225 48.8196C14.1748 49.492 13.7249 49.4129 13.0821 48.8245C9.589 45.6182 9.45056 39.119 12.9091 35.6432C13.6754 34.8719 14.1352 34.0783 14.3379 33.0326C14.7038 31.1439 15.3194 29.3244 16.1995 27.4283C14.7805 28.1526 14.113 29.0302 13.9177 30.5531C13.1835 36.2538 9.32201 39.3909 3.55208 39.2129C2.8945 39.1931 2.23444 39.2178 1.57685 39.2302C1.03546 39.2401 0.669586 39.1165 0.877244 38.449C1.29256 37.119 1.52494 35.7495 2.01195 34.4269C3.51005 30.3553 6.65954 28.4246 10.6372 27.4876C11.2874 27.3344 11.9969 27.2404 12.5753 27.5741C13.5246 28.1205 14.1303 27.6681 14.8546 27.1193C20.0164 23.2183 21.5516 16.0466 19.4157 10.8255C18.8891 12.4101 17.7964 13.4633 17.8533 15.1863C17.9819 18.9662 14.7014 22.1676 10.5062 22.6027C9.60384 22.6966 8.7114 22.7065 7.91785 23.2628C7.45556 23.5866 7.20835 23.3864 7.14407 22.798C6.6719 18.4224 10.4864 13.2062 14.8398 12.3558C15.354 12.2544 16.0091 12.1555 16.4145 12.383C17.4479 12.9639 17.5814 12.2346 18.0189 11.6166C19.1215 10.0592 18.679 8.73905 17.9398 7.14206C16.2909 3.58715 13.4678 2.32636 9.81396 2.31647C9.49259 2.31647 9.04761 2.41536 9.02783 1.9679C9.00558 1.4537 9.50248 1.49573 9.85846 1.46854C11.8114 1.31774 13.6062 1.84677 15.2872 2.80101C17.2822 3.93077 18.9732 5.43382 20.3996 7.21375C20.9385 7.88617 21.5368 8.18529 22.3723 8.23721C24.4366 8.36576 26.4835 8.43992 28.4513 7.62165C29.0644 7.36702 29.4401 7.05306 29.5069 6.29659C29.6206 4.98884 30.471 4.0346 31.4351 3.24105C34.5698 0.662624 38.1049 0.269557 41.8873 1.45865C42.5177 1.65642 43.064 2.04454 43.5485 2.49941C44.7624 3.63659 44.6783 4.01482 43.4818 5.063C41.7711 6.56111 40.0975 8.07157 37.8676 8.76624C36.0481 9.33236 34.2138 9.76745 32.2905 9.34719C31.9716 9.27797 31.5489 9.27797 31.361 9.07278C30.0335 7.63648 28.8518 8.74894 27.3092 9.26067C30.6663 10.5041 32.6069 13.2062 35.2051 15.0627C37.8206 16.9341 38.7081 19.6312 37.9269 22.9068C39.0765 22.6027 40.0925 22.3258 41.1135 22.0687C41.514 21.9698 41.692 21.6954 41.9071 21.3716C42.8242 19.9748 43.4769 18.5089 43.6277 16.8081C43.7241 15.7277 44.1839 14.7389 45.0565 14.017C45.368 13.7599 45.4793 13.5696 45.3458 13.1048C44.8761 11.4732 45.2246 10.6302 46.3692 10.2841C47.719 9.87375 49.5583 10.7093 49.9415 11.9825C50.2554 13.0282 50.1219 14.0343 49.2344 14.8032C48.4186 15.5077 47.5163 15.4138 46.7351 14.8328C46.0404 14.3162 45.724 14.6721 45.3384 15.1616C44.5349 16.1876 44.5201 17.431 44.2333 18.7759C45.8921 18.1381 47.5163 18.3284 49.0762 18.0046C49.7511 17.8637 50.0329 17.609 50.023 16.8674C50.0033 15.3866 50.6015 14.5683 51.6101 14.467C52.552 14.3705 53.4642 15.0454 53.704 16.0145C54.0056 17.2357 53.3332 18.8055 52.3221 19.1467C52.0255 19.2456 51.6274 19.3049 51.3605 19.1862C49.3185 18.2938 47.363 19.1986 45.4002 19.4829C44.2704 19.6461 43.4521 20.4693 42.8366 21.6559C44.2259 21.468 45.4916 21.2851 46.7623 21.1318C47.4965 21.0428 48.253 20.8722 48.9724 20.9587C51.5335 21.2752 53.6941 20.4223 55.7139 18.944C56.1663 18.6127 56.3541 18.2369 56.4777 17.7574C57.4938 13.8687 62.8707 14.0912 64.8187 16.1653C65.3799 16.7636 65.5282 17.5522 65.5282 18.3482C65.5282 19.5447 65.4194 20.7363 65.0857 21.8883C64.8854 22.5829 65.0659 22.9093 65.7581 23.1392C68.5318 24.0588 70.9199 25.6632 73.1967 27.4456C75.8864 29.5518 77.3968 32.1748 77.157 35.742C76.8678 40.0509 76.9172 44.4118 75.9136 48.6218C74.6923 53.7416 72.9124 58.7179 70.5713 63.4323C68.6307 67.3407 65.0708 69.447 60.8608 69.8029C54.1465 70.374 47.3902 70.6805 40.6858 69.4791C40.3595 69.4198 40.1024 69.395 39.7884 69.6521C36.6513 72.2256 32.9481 71.9562 30.1472 68.9847C29.9815 68.8092 29.7764 68.6732 29.5094 68.4532V68.4507ZM31.2819 51.5562C32.3301 50.6119 33.3585 50.0012 34.5302 49.7219C36.2953 49.3016 38.0308 49.3387 39.2915 50.8665C40.4708 52.2929 39.8898 53.8256 39.252 55.2842C38.5153 56.9652 37.4053 58.3595 35.7614 59.3582C39.336 61.2074 41.0393 63.8575 40.6413 67.1553C40.5029 68.2925 40.8564 68.5817 41.8601 68.7004C48.1442 69.442 54.4407 69.3852 60.715 68.7894C64.9695 68.3864 68.3761 66.2381 70.0497 62.2209C72.4452 56.4658 75.0162 50.728 75.5947 44.3994C75.7776 42.3945 76.094 40.3847 75.9309 38.1721C73.172 41.4601 69.716 43.0793 65.7927 43.7023C60.9572 44.4711 56.0995 45.0644 51.1825 45.057C48.2901 45.0521 45.4372 44.6367 42.5696 44.3945C36.8936 43.9149 31.3536 43.02 27.2177 37.9991C27.4501 43.3315 27.7294 48.3153 30.0606 52.8936C30.8295 52.4165 30.8344 51.618 30.654 50.7107C30.3524 49.1929 30.0953 47.6651 30.3128 46.1027C30.7874 47.8332 30.6416 49.6724 31.2843 51.5562H31.2819ZM50.2777 24.8548C48.5867 24.8375 46.9007 24.9141 45.237 25.2182C43.0541 25.6162 40.9108 26.1996 38.849 27.0303C36.0333 28.1625 33.4499 29.673 31.5439 32.1055C30.1373 33.8978 30.3969 35.6333 32.1891 37.035C32.8393 37.5442 33.5513 37.9422 34.3078 38.2784C38.8985 40.3303 43.7785 40.8816 48.7301 41.114C49.4767 41.1486 49.6374 40.7431 49.7659 40.1894C50.2875 37.9521 50.7276 35.6901 51.358 33.4825C52.0897 30.9189 52.9747 28.3998 53.8276 25.8733C54.0798 25.1292 53.9364 24.8153 53.1132 24.8449C52.1688 24.8795 51.222 24.8523 50.2777 24.8523V24.8548ZM51.133 41.6751C49.8277 41.6158 47.9341 41.5664 46.0454 41.4403C41.5338 41.1412 37.1655 40.2067 33.0816 38.2166C30.0186 36.7259 29.3858 33.8706 31.45 31.1637C31.8702 30.6124 32.3449 30.0586 32.9085 29.668C38.7798 25.6138 45.3606 24.0563 52.4111 24.3085C54.3492 24.3777 54.3047 24.4667 54.8733 22.7881C55.128 22.0366 54.9599 21.9056 54.2158 21.8537C49.1875 21.5026 44.2729 22.1973 39.4448 23.5149C35.3905 24.62 31.8851 26.746 28.9803 29.7768C26.4439 32.4245 26.4365 35.5146 28.8369 38.2982C30.387 40.0954 32.3696 41.2301 34.5995 41.9619C37.079 42.7777 39.6574 43.0818 42.2358 43.3141C45.9218 43.6429 49.5929 44.4414 53.3035 44.1003C57.4394 43.7196 61.5876 43.4031 65.6913 42.7011C68.3662 42.2412 70.8482 41.3414 73.0237 39.6702C76.9197 36.6814 77.2807 32.8076 73.8543 29.3219C71.5478 26.9784 68.7592 25.3097 65.6864 24.133C65.2142 23.9525 64.569 23.5174 64.5072 24.4469C64.4602 25.1737 63.2662 26.1181 64.8434 26.6644C66.8359 27.3566 68.7049 28.3158 70.3612 29.6384C73.9037 32.469 74.193 36.8792 69.0312 38.8347C63.412 40.9632 57.6298 41.5787 51.1305 41.6727L51.133 41.6751ZM53.5137 41.1313C53.5137 41.1609 53.5137 41.1906 53.5137 41.2203C54.6632 41.1461 55.8127 41.025 56.9623 41.0151C57.6001 41.0101 57.9091 40.7679 58.1415 40.1993C60.1365 35.3341 62.1043 30.4566 63.2761 25.3122C63.7136 23.3913 64.3688 21.5249 64.6086 19.5571C64.7272 18.5979 64.4281 18.2889 63.4788 18.5064C62.2378 18.7932 60.9795 18.8772 59.6964 18.8105C58.8757 18.7684 57.9264 18.0046 57.4073 18.4421C56.8461 18.9143 56.7793 19.9872 56.5173 20.8055C54.6385 26.657 52.2652 32.3626 51.1948 38.4589C51.0366 39.3538 50.2183 40.5231 50.7721 41.0373C51.2789 41.507 52.5668 41.1362 53.5112 41.1362L53.5137 41.1313ZM58.9845 40.7654C62.9102 40.308 66.5689 39.5837 69.9113 37.8087C73.1102 36.1104 73.4464 33.5765 70.9594 30.8868C69.2636 29.05 67.051 28.0612 64.7964 27.1267C64.0894 26.835 63.7952 26.9709 63.6148 27.72C62.8632 30.8448 61.7236 33.8434 60.5765 36.8347C60.0945 38.093 59.563 39.3365 58.982 40.7654H58.9845ZM35.3831 23.7794C33.2052 22.8919 32.1916 21.2084 32.0433 18.9811C31.9642 17.7796 32.2411 16.6004 32.7404 15.5028C32.9679 15.0009 32.9085 14.7216 32.4932 14.3532C31.7887 13.7253 31.1978 12.9688 30.5007 12.331C28.1522 10.1803 25.4427 8.94671 22.0534 9.11481C22.2314 9.39169 22.3303 9.56474 22.4465 9.72295C25.5243 13.9552 28.1818 18.4545 30.9209 22.9043C32.6193 25.6657 32.5797 25.6879 35.2941 24.0019C35.3213 23.9846 35.3263 23.9302 35.3856 23.7819L35.3831 23.7794ZM39.6475 66.4507C39.6475 64.8216 39.0641 63.3952 38.058 62.1468C36.7601 60.5374 34.7898 60.0356 32.8418 60.7055C32.2806 60.8984 31.9617 61.1184 31.9172 61.7908C31.8257 63.2123 31.2028 64.4112 29.9791 65.19C29.3808 65.5707 29.3907 65.9242 29.6429 66.5051C30.7034 68.9402 33.0198 70.4111 35.8281 70.374C38.3966 70.3394 39.6747 69.0242 39.6475 66.4483V66.4507ZM28.2684 68.3073C28.2684 67.8969 28.2214 67.4791 28.2782 67.0762C28.4043 66.1739 28.0805 65.8871 27.151 65.8797C25.9718 65.8698 24.8815 65.3828 24.1399 64.4285C23.6727 63.8278 23.3167 63.9465 22.8272 64.3099C21.1486 65.5558 20.276 67.2418 19.9793 69.2887C19.6209 71.7609 20.7531 73.6792 22.8791 74.102C25.4674 74.6162 27.3636 73.4543 28.0483 70.992C28.2956 70.1021 28.2486 69.2047 28.2659 68.3048L28.2684 68.3073ZM38.9183 53.2842C38.9949 51.3288 37.4696 50.1669 35.6847 50.4536C32.8492 50.911 31.1286 52.7502 29.9148 55.1803C29.1188 56.7749 29.2078 57.0938 30.5254 58.2186C30.6811 58.3521 30.8913 58.4831 30.9531 58.6561C31.5859 60.5003 32.7429 59.729 33.8331 59.242C34.3572 59.0072 34.8961 58.7822 35.3757 58.4707C37.393 57.1605 38.4164 55.2001 38.9183 53.2842ZM28.7158 53.8627C28.7826 52.9554 28.7059 52.063 28.481 51.178C27.8407 48.6589 25.727 47.6428 23.3488 48.7207C20.9682 49.801 20.3155 53.5339 22.1276 55.8626C22.8371 56.7749 23.7221 57.5733 24.7085 58.1123C25.3389 58.4584 25.9149 57.4423 26.6516 57.3756C26.6911 57.3731 26.7332 57.3558 26.7678 57.3385C27.2968 57.0888 28.1126 57.6253 28.4068 56.8985C28.6466 56.3101 28.6392 55.6154 28.7059 54.9653C28.743 54.5994 28.7133 54.2286 28.7133 53.8578L28.7158 53.8627ZM18.4738 63.2469C19.8755 63.2419 21.2549 63.012 22.6344 62.7945C22.8915 62.7549 23.2895 62.8365 23.2846 62.4063C23.2722 61.4323 23.5763 60.5523 23.9842 59.6895C24.1424 59.3558 23.9397 59.1506 23.7122 58.9528C22.0485 57.514 20.2661 56.278 18.0511 55.8552C16.9806 55.65 15.9547 55.8305 15.2749 56.76C14.1995 58.2235 13.6952 59.8971 14.4121 61.6252C15.0746 63.2222 16.6444 63.2172 18.1055 63.2444C18.2291 63.2444 18.3527 63.2444 18.4763 63.2444L18.4738 63.2469ZM29.455 27.9301C30.1571 27.3789 30.5674 26.9759 31.052 26.6965C31.7936 26.2713 31.8183 25.8807 31.3585 25.1539C29.0001 21.4433 26.7282 17.6758 24.3797 13.9602C22.8767 11.5795 21.1734 9.33977 19.1907 7.30274C20.3328 9.78228 20.7383 12.4546 21.475 15.0232C22.0287 16.9539 22.5528 19.426 25.1535 20.138C25.5218 20.2394 25.8556 20.5706 26.1374 20.8623C27.9643 22.751 29.6305 24.7263 29.455 27.9301ZM30.9556 61.4249C30.9382 59.5634 29.5835 58.221 27.7665 58.2631C25.821 58.31 24.2932 59.9738 24.3229 62.0158C24.3476 63.7166 25.6627 64.9403 27.4624 64.9403C29.4352 64.9403 30.9753 63.3903 30.9556 61.4224V61.4249ZM2.23197 37.8161C4.48407 36.9287 6.32086 35.7692 7.31712 33.6086C8.10079 31.9078 9.32696 30.6322 10.919 29.6755C11.4604 29.3491 11.987 29.0006 12.5803 28.6223C8.20956 27.2379 2.82528 32.0116 2.23444 37.8161H2.23197ZM3.13429 38.1721C9.31954 38.7234 12.1946 35.1215 13.1019 30.249C13.1612 29.9326 13.3021 29.495 13.0426 29.312C12.7385 29.097 12.3429 29.3442 12.024 29.5197C10.4073 30.4072 9.05255 31.5666 8.20956 33.2452C7.65333 34.3527 6.97597 35.3712 6.05387 36.2192C5.24301 36.9657 4.2245 37.4107 3.13429 38.1721ZM43.0961 3.62175C41.4398 1.65889 38.006 1.11997 34.9109 2.31153C32.8789 3.09272 31.0594 4.15821 30.2955 6.7218C31.4277 6.18782 32.1545 5.32999 33.1038 5.39674C36.5846 5.64395 39.5289 3.23858 43.0986 3.62175H43.0961ZM42.8119 4.16562C41.8156 4.16562 41.0369 3.99504 40.3101 4.31148C38.0629 5.29291 35.6971 5.66373 33.2794 5.90105C32.3004 5.99746 30.8023 6.3757 30.874 7.33735C30.958 8.44487 32.4438 8.58578 33.5191 8.57094C37.1507 8.51656 40.2087 7.16925 42.8119 4.16315V4.16562ZM14.6692 34.9287V47.6181C17.9992 44.79 18.1846 37.7939 14.6692 34.9287ZM13.9745 48.1793C13.7817 45.9519 13.7867 43.9495 14.1476 41.9495C14.5061 39.9545 13.6655 37.9521 14.0833 35.9324C10.5358 38.5949 10.3727 45.2671 13.9745 48.1793ZM8.95861 21.5916C9.05008 21.6757 9.14155 21.7597 9.23549 21.8462C9.68047 21.7993 10.1279 21.7572 10.5729 21.7004C14.3256 21.2208 16.8793 18.4866 16.9732 14.9391C17.0004 13.9033 16.6346 13.8094 15.8262 14.2123C15.1414 14.5535 14.6074 15.0702 14.1847 15.6734C12.6717 17.8365 11.6953 20.4347 8.96108 21.5916H8.95861ZM16.3527 13.4089C12.5061 12.9021 7.58658 18.1208 8.29608 21.5842C10.4023 20.3679 11.8584 18.5558 13.0005 16.4125C13.6804 15.1344 14.7014 14.0961 16.3527 13.4089ZM27.6132 30.0834C25.0101 27.547 25.9866 23.5619 23.465 21.0527C21.6159 24.3703 24.3377 29.8188 27.6132 30.0834ZM23.9842 20.8277C25.1955 22.4371 25.7839 24.2145 26.2486 26.0513C26.439 26.8004 26.7332 27.5296 27.0644 28.2293C27.2721 28.6718 27.4402 29.4134 28.0211 29.3046C28.6515 29.186 28.4785 28.4493 28.5156 27.9326C28.7183 24.9537 27.0298 22.934 25.0225 21.0898C24.8074 20.892 24.528 20.6448 23.9866 20.8253L23.9842 20.8277ZM60.7743 17.9403C61.6643 17.8142 62.6778 17.656 63.6939 17.5324C64.4034 17.4459 64.4083 17.1467 64.0177 16.6622C62.9176 15.2976 59.5036 15.1221 58.2404 16.3779C57.7385 16.8773 57.5556 17.2975 58.4703 17.5769C59.1872 17.7969 59.909 17.881 60.7743 17.9403ZM19.4849 28.8448C17.883 31.9102 19.6926 36.1895 22.9904 36.894C21.114 34.3626 20.2043 31.6507 19.4849 28.8448ZM33.9023 15.3792C31.9914 18.6819 33.1755 22.6818 36.7527 22.9562C34.1891 20.9909 34.7379 18.0837 33.9023 15.3792ZM36.8812 22.4593C37.9393 20.3506 36.9109 17.253 34.775 16.1208C35.2364 19.3032 35.9385 21.4161 36.8812 22.4593ZM26.3129 40.0361C25.7789 41.6578 25.6331 43.3685 24.4638 44.7134C24.3327 44.8666 24.1523 45.0891 24.4094 45.2226C25.3216 45.6973 25.9718 46.3524 26.2462 47.3783C26.2783 47.5019 26.6862 47.7491 27.0323 47.4673C26.7925 45.0026 26.5527 42.5206 26.3104 40.0361H26.3129ZM23.0868 35.7717C23.4873 33.1933 22.051 29.7991 20.2463 28.7756C20.7086 31.2329 21.2525 33.71 23.0868 35.7717ZM46.0083 12.0097C45.9885 13.0603 47.0936 14.3285 48.0157 14.2939C48.8562 14.2642 49.1306 13.661 49.1899 12.9738C49.2666 12.0962 48.028 11.0703 46.9873 11.048C46.3148 11.0332 46.0083 11.3546 46.0083 12.0072V12.0097ZM21.5022 45.3734C21.0794 45.4328 20.5825 45.3116 20.3946 45.7764C20.2142 46.2238 20.6147 46.5205 20.8569 46.8394C21.873 48.1719 23.1659 47.6453 24.4217 47.366C24.6492 47.3165 24.9557 47.3758 25.0175 47.0644C25.0719 46.7949 24.8791 46.6021 24.6739 46.4612C23.7098 45.8036 22.6319 45.4748 21.5046 45.3759L21.5022 45.3734ZM52.9624 16.8056C52.8956 16.0738 52.6262 15.3792 51.8821 15.3569C50.997 15.3322 50.8339 16.1752 50.7993 16.8624C50.7671 17.52 50.9303 18.3309 51.7239 18.3581C52.6534 18.3902 52.7498 17.4805 52.9624 16.8031V16.8056Z" fill="black"/>
<path d="M66.7491 63.4395C66.0248 65.3158 64.319 66.0673 62.6924 66.9078C64.0224 65.7286 65.5032 64.72 66.7491 63.4395Z" fill="black"/>
<path d="M62.7024 65.6797C63.0435 64.142 64.1733 63.4004 65.4143 62.7725C64.7691 63.9937 63.2735 64.409 62.7024 65.6797Z" fill="black"/>
<path d="M56.4232 23.6709C55.3083 26.6449 54.6828 29.7573 53.9016 33.1292C53.4937 32.1849 53.8646 31.6064 53.9635 31.0205C54.3417 28.7536 54.9597 26.5534 55.8991 24.4496C56.0301 24.1554 56.1043 23.8291 56.4479 23.6907L56.4232 23.6709Z" fill="black"/>
<path d="M56.4453 23.69C56.5194 22.4194 57.4712 21.5047 57.8099 20.3428C57.5231 21.5244 57.3154 22.7407 56.4205 23.6702L56.4453 23.69Z" fill="black"/>
<path d="M35.2054 67.4721C33.6455 68.4757 31.8927 67.2718 31.9051 65.1631C32.4465 66.7452 33.4403 67.65 35.2054 67.4721Z" fill="black"/>
<path d="M35.8477 66.5718C35.1975 65.2739 35.1011 63.9711 33.5363 63.4593C35.1604 63.4124 36.0183 64.6015 35.8477 66.5718Z" fill="black"/>
<path d="M22.4813 66.8169C21.3045 68.1568 21.7174 69.3904 22.8546 70.8143C21.7223 70.404 21.396 69.7662 21.3243 68.9726C21.2378 68.0258 21.5864 67.2718 22.4813 66.8145V66.8169Z" fill="black"/>
<path d="M31.9541 56.3271C31.5363 54.5027 32.7748 53.5484 35.2321 54.0132C33.6376 54.4112 31.9491 54.2876 31.9541 56.3271Z" fill="black"/>
<path d="M35.7339 55.3164C34.9997 56.99 34.1987 57.5018 32.7155 57.3213C33.9466 57.1829 34.5819 56.1841 35.7339 55.3164Z" fill="black"/>
<path d="M24.8916 55.8082C23.4652 55.5561 22.9041 54.4683 22.6198 53.2174C22.4269 52.3769 22.4937 51.5389 23.4751 51.084C22.951 51.9245 22.7557 52.765 23.2551 53.6797C23.6902 54.4733 24.2464 55.1556 24.8916 55.8107V55.8082Z" fill="black"/>
<path d="M25.2423 50.7803C26.5896 51.6084 26.9283 53.067 26.2435 55.1658C25.8084 53.5664 26.4784 51.9496 25.2423 50.7803Z" fill="black"/>
<path d="M20.9363 59.8223C19.8832 59.2711 19.4209 57.7433 17.8956 58.3984C19.1614 57.5628 20.212 58.0721 20.9363 59.8223Z" fill="black"/>
<path d="M17.559 60.374C18.7283 61.5508 19.8556 61.3925 21.2227 60.7201C20.6269 61.7856 19.8803 61.8276 19.1313 61.7263C18.4836 61.6373 17.7938 61.4939 17.5565 60.3765L17.559 60.374Z" fill="black"/>
<path d="M9.88342 32.415C9.54474 33.5819 8.95637 34.6004 8.01697 35.4088C8.28396 34.1974 9.20359 33.3767 9.88342 32.415Z" fill="black"/>
</svg>
