<svg width="70" height="88" viewBox="0 0 70 88" fill="none" xmlns="http://www.w3.org/2000/svg">
<path d="M41.4385 42.3213C41.3809 41.0257 41.3181 39.9578 41.2867 38.8925C41.2003 35.9688 42.742 34.3198 45.7285 34.1287C46.9377 34.0502 48.0606 34.3643 49.1181 34.927C50.0315 35.4139 50.5655 36.1337 50.576 37.2199C50.5917 38.6595 50.6466 40.0965 50.7121 41.5361C50.7723 42.8474 50.1598 44.5383 52.4893 44.4624C52.2276 45.2424 51.5078 44.9178 51.2146 45.4622C51.7538 45.8208 52.5574 45.8522 53.0102 46.5799C52.2799 46.8783 51.6099 47.1505 50.9712 47.4096C50.8456 47.7342 51.1152 47.6949 51.2251 47.7839C51.5811 48.064 52.2668 48.1477 52.1648 48.7157C52.081 49.1764 51.4502 49.1083 51.0523 49.2366C50.7513 49.3334 50.4032 49.3805 50.4215 49.7679C50.4844 51.2808 50.008 52.7754 50.3168 54.3066C50.4425 54.9269 50.7042 55.0892 51.267 55.0761C52.4919 55.0473 53.7117 55.1782 54.8921 55.4923C59.7658 56.7879 61.9409 60.4287 62.9591 64.9909C63.4564 67.221 63.4799 69.4929 63.0219 71.7413C62.8753 72.4611 63.1004 72.838 63.7286 73.1992C65.3697 74.1441 67.1836 74.6205 68.9452 75.2434C69.3718 75.3926 69.9974 75.4319 70 76.0444C70.0026 76.5574 69.4398 76.6543 69.0734 76.8532C67.0894 77.9368 65.5268 79.5151 63.9982 81.1353C62.6816 82.5304 61.4069 83.97 59.8496 85.1112C55.8501 88.0453 52.1229 87.7679 48.5972 84.2736C48.2569 83.936 47.935 83.58 47.6183 83.2214C46.8304 82.3315 45.7599 82.6665 44.9328 82.8759C44.2601 83.046 44.9406 83.8444 45.0191 84.3286C45.3332 86.3178 45.0506 86.8701 43.0613 86.8858C38.2295 86.9198 33.3846 87.4433 28.5659 86.7052C27.1656 86.4906 25.7784 86.1111 25.7417 84.2213C25.726 83.4858 25.09 83.6742 24.6398 83.6821C22.1113 83.7239 19.5829 83.8391 17.0544 83.8103C15.0521 83.7894 13.0471 83.6376 11.0527 83.4543C10.4506 83.3994 10.1025 83.3968 10.1444 84.0878C10.1968 84.9908 9.5738 85.3206 8.88018 85.509C6.69724 86.1032 4.49074 86.221 2.30518 85.5588C1.18753 85.2185 0.158878 84.6558 0.0201538 83.3287C-0.121188 81.9807 0.486058 80.8317 1.67961 80.3291C3.11658 79.7245 3.71859 78.9026 3.9751 77.306C4.27611 75.411 5.79946 74.0734 7.33589 72.9532C8.38287 72.1915 9.51884 71.5502 10.6417 70.8383C9.80676 70.341 8.85924 70.4928 7.9824 70.3227C6.29415 69.9981 5.78114 69.438 5.63979 67.7288C5.44087 65.3391 6.30462 63.3917 7.9667 61.727C8.77548 60.9156 9.634 60.0937 10.6914 59.7325C13.1335 58.8949 13.2173 56.9266 13.1728 54.919C13.1361 53.2779 13.3586 51.6656 14.5417 50.5584C16.1331 49.0691 17.0832 47.1479 18.4365 45.512C18.9599 44.8759 19.8813 44.2268 19.876 43.5855C19.8734 42.8631 18.6615 42.659 18.0124 42.18C14.2538 39.4107 12.3718 35.6233 12.0133 31.0532C11.7803 28.0877 11.9033 25.1195 12.521 22.2011C13.2094 18.9554 15.4866 17.1311 19.2269 16.5605C20.8811 16.3066 22.4987 16.4584 24.2367 16.7306C23.9854 15.7308 23.742 14.8618 23.5562 13.9823C23.3965 13.2259 23.0484 12.7364 22.2291 12.5846C21.2005 12.3935 20.7032 11.6554 20.5461 10.6686C20.3734 9.59024 20.8419 8.80239 21.7266 8.24488C22.8809 7.51723 24.1896 7.38112 25.5035 7.42039C26.4432 7.44918 26.7206 7.0775 26.6421 6.18495C26.5662 5.31858 26.5976 4.44174 26.6133 3.57013C26.6474 1.8243 27.2965 0.994574 28.9847 0.638603C31.2907 0.156994 33.4762 0.670012 35.5938 1.57826C36.2691 1.8688 36.557 2.38967 36.5465 3.13302C36.5308 4.18 36.6119 5.22697 36.5779 6.27133C36.5517 7.07488 36.769 7.47273 37.6694 7.45179C38.63 7.43085 39.5853 7.6324 40.4386 8.10354C41.3757 8.62179 42.0169 9.38085 41.8808 10.5273C41.7526 11.6161 41.2082 12.4171 40.0513 12.6239C39.2032 12.7757 39.054 13.4169 38.8054 14.1001C36.2821 21.0023 36.8554 27.9751 38.2164 34.9872C38.6928 37.445 39.1954 39.8635 40.9098 41.8188C41.0145 41.9392 41.1401 42.0412 41.4385 42.3213ZM31.5524 60.9601C30.9033 61.8212 31.0918 62.575 31.5655 63.3917C32.1597 64.4177 32.4057 65.5851 32.5392 66.7551C32.657 67.7811 32.4973 68.7836 31.7383 69.5505C30.5002 70.8017 30.5473 71.3775 32.055 72.3512C34.1018 73.6704 35.9445 75.1754 36.714 77.6148C36.8946 78.1854 37.2846 78.2718 37.7872 78.3713C39.9178 78.7953 41.9044 79.5727 43.3937 81.2112C43.9591 81.8315 44.5166 82.0121 45.3097 82.0043C46.2755 81.9964 46.744 81.9022 46.0557 80.8395C45.1998 79.5177 45.3071 78.1252 45.9483 76.7275C46.943 74.5629 48.4192 72.8328 50.5393 71.7204C51.2513 71.3461 51.513 70.8959 51.4947 70.0923C51.4502 68.1711 50.8796 66.4227 49.9949 64.7449C49.8352 64.4413 49.4714 64.1769 49.7017 63.5644C51.335 65.8154 51.9423 68.2418 52.0339 70.8776C53.2641 70.5792 54.366 70.0845 55.5622 70.163C56.3945 70.218 56.7034 69.8149 56.8709 69.0742C57.4939 66.3442 57.0149 63.8131 55.6512 61.4024C55.0204 60.2874 54.1174 59.3687 53.34 58.3008C53.5363 58.2615 53.6462 58.2039 53.6907 58.2353C53.8661 58.361 54.0336 58.5023 54.1854 58.6594C57.0332 61.6118 58.3812 65.0433 57.3892 69.1474C57.1955 69.951 57.342 70.2232 58.109 70.3724C59.1847 70.5818 60.1715 71.0529 61.1112 71.6078C61.6556 71.9298 61.8388 71.7858 61.954 71.1733C62.3047 69.3019 62.2445 67.4356 61.9069 65.5851C61.0065 60.6748 57.931 55.9241 51.2513 56.2592C50.9895 56.2723 50.7278 56.2461 50.466 56.2513C49.7332 56.2696 49.3458 55.9869 49.3222 55.186C49.2934 54.1861 49.1835 53.1889 49.2803 52.1838C49.3903 51.0531 49.0264 50.3804 47.7099 50.5453C46.8514 50.6526 45.9693 50.5715 45.1055 50.6657C43.0953 50.8856 43.0953 50.9065 43.0482 52.9874C43.0404 53.3355 43.0299 53.6836 43.0482 54.0317C43.1058 54.9897 42.8571 55.4661 41.7133 55.3535C40.3784 55.2227 39.0174 55.33 37.6694 55.3876C36.9862 55.4163 36.5622 55.6441 36.4235 56.5209C36.1251 58.3924 35.6147 58.7038 33.6778 59.0546C32.725 59.2273 31.7749 59.264 30.8195 59.2771C30.2202 59.2849 29.7385 59.5257 29.5736 60.044C29.3643 60.7114 30.0657 61.0098 30.4296 61.3632C30.9714 61.8893 30.8955 60.769 31.5577 60.9575L31.5524 60.9601ZM40.3889 45.9412C41.7892 45.4073 41.9646 44.8131 40.9935 43.7269C39.1221 41.6303 37.8343 39.2641 37.3736 36.4713C36.8711 33.422 36.324 30.3753 36.0963 27.292C36.0256 26.3497 35.578 25.9178 34.7981 26.1926C32.4188 27.025 30.105 27.1009 27.7074 26.2241C26.9693 25.9545 26.3594 26.3759 26.2757 27.4098C26.116 29.4016 25.7417 31.3778 25.548 33.367C25.1057 37.9476 23.4986 41.9653 20.1247 45.2031C19.3813 45.915 18.7558 46.7579 18.2192 47.7577C19.7818 47.6216 20.978 47.1897 21.8365 45.7894C23.1688 43.6196 24.255 41.3659 25.0245 38.9474C25.6606 36.9425 26.0087 34.8668 26.6186 32.8671C26.1239 37.9999 24.7549 42.8396 21.4229 47.1636C21.9255 47.1348 22.1401 47.1295 22.3548 47.1112C28.3644 46.5982 33.3035 48.242 36.1774 54.0056C36.3738 54.3982 36.5753 54.4662 36.9862 54.3982C38.3656 54.1652 39.7607 54.139 41.1558 54.2568C41.4437 54.2804 41.9175 54.406 41.928 54.0317C41.9541 53.0816 41.873 52.1236 41.7709 51.1761C41.7159 50.6657 41.182 50.7521 40.8365 50.6395C40.6088 50.5662 40.3941 50.4825 40.436 50.2312C40.457 50.1003 40.6611 49.9145 40.7946 49.9014C42.1557 49.7784 41.7186 48.7785 41.695 48.0273C41.6688 47.1374 41.907 46.0381 40.3837 45.9412H40.3889ZM35.7299 78.0022C35.0807 76.2459 33.8898 75.0576 32.5314 74.0342C27.7571 70.4431 22.3155 69.629 16.5571 70.3645C13.0288 70.8147 9.85125 72.1732 7.14744 74.5236C6.08214 75.4502 5.17127 76.5077 4.92262 77.963C4.78651 78.7482 4.83624 79.3738 5.91724 79.5177C7.09247 79.6721 8.24676 80.1511 8.97964 81.1091C9.6183 81.9441 10.4219 82.143 11.3301 82.2451C15.9342 82.7581 20.5487 82.588 25.1633 82.41C25.658 82.3917 26.0846 82.3184 26.3882 81.8342C27.2834 80.3998 28.6863 79.6146 30.194 78.9942C31.9791 78.2587 31.9843 78.2744 30.6442 76.7825C30.6102 76.7458 30.652 76.6412 30.6625 76.5051C31.5603 76.6412 31.9503 77.3165 32.322 77.9891C32.5392 78.3818 32.8088 78.2875 33.0836 78.1331C33.4893 77.9054 33.115 77.7065 33.0234 77.518C32.6413 76.7275 31.8875 76.2826 31.2724 75.6884C32.2434 75.6622 33.0575 76.1674 33.2799 76.9395C33.6778 78.3242 34.573 78.1488 35.7351 78.0048L35.7299 78.0022ZM19.6221 58.4055C16.0179 58.5416 12.3064 59.2875 9.26233 61.9783C7.44844 63.5801 6.64489 65.6296 6.81764 68.0455C6.85167 68.5271 6.90402 69.048 7.53744 69.1213C10.024 69.4144 12.4582 70.1473 15.0285 69.4982C17.5334 68.8674 20.1221 68.6423 22.6793 69.1657C25.1214 69.6657 27.5111 69.4694 29.927 69.0768C30.8824 68.9223 31.3273 68.4512 31.3142 67.5272C31.275 64.9805 30.5369 62.719 28.4926 61.0517C26.0008 59.0179 23.0405 58.463 19.6221 58.4055ZM28.5607 58.1882C30.0579 58.2851 31.6205 57.9108 33.1752 57.9971C34.5913 58.0757 35.0781 57.4292 35.3294 56.212C35.51 55.3326 35.3085 54.5709 34.908 53.8328C34.2327 52.5921 33.2224 51.6368 32.1911 50.6893C28.5136 47.3049 20.3367 47.7289 17.3162 49.5611C15.3976 50.7259 14.2224 52.3016 14.2904 54.6651C14.348 56.6622 14.9657 57.4449 17.3397 57.403C19.5201 57.3637 21.7135 57.1386 23.8336 57.7197C25.3779 58.1437 26.9117 58.2275 28.5581 58.1882H28.5607ZM24.0901 12.3202C25.5297 16.427 26.5819 20.6175 26.3594 25.0279C26.3333 25.5278 26.4432 25.6404 27.04 25.7634C29.7333 26.3131 32.3822 26.6481 35.0127 25.5331C35.0493 25.5174 35.1017 25.5226 35.1409 25.5331C36.0309 25.8341 36.0309 25.2975 36.0125 24.6588C35.9393 22.0335 36.235 19.4449 36.8868 16.906C37.2611 15.4455 37.727 14.0111 38.2243 12.3176H24.0875L24.0901 12.3202ZM13.0053 28.0275C12.9503 34.4193 14.7799 38.4318 18.816 41.3764C20.8523 42.8605 20.8052 42.8291 22.2527 40.7901C22.9515 39.8059 22.9149 39.1019 22.1035 38.2015C20.6194 36.5525 19.0071 34.9977 17.824 33.1001C14.7328 28.14 17.2979 22.2194 23.0039 21.141C23.4724 21.052 23.9566 21.0572 24.4356 21.0232C24.734 21.0023 25.0088 21.0441 25.1004 20.5992C25.391 19.1989 24.4801 17.8299 23.0641 17.6127C22.7186 17.5603 22.3757 17.4766 22.0302 17.4609C16.3556 17.2253 13.8455 19.4711 13.2932 24.0568C13.11 25.5697 13.0707 27.0983 13.0079 28.0275H13.0053ZM40.1638 85.9619C40.1638 85.8729 40.1638 85.7865 40.1638 85.6975C41.0354 85.6975 41.9123 85.6373 42.7786 85.7132C43.7523 85.7996 43.8361 85.3991 43.7 84.5668C43.4382 82.9937 42.6399 81.808 41.3233 80.9835C37.6772 78.7037 33.8505 78.5807 29.961 80.2401C28.3722 80.918 27.2363 82.0985 26.9484 83.9176C26.8201 84.7317 27.0269 85.2473 27.9299 85.4174C29.3878 85.6896 30.8379 85.9723 32.3298 85.9645C34.942 85.9514 37.5542 85.9619 40.169 85.9619H40.1638ZM23.5169 37.9764C23.6452 37.4215 23.7498 37.0131 23.831 36.5996C24.7235 32.1578 25.4931 27.7003 25.3125 23.1433C25.2968 22.7298 25.5349 22.065 24.7314 22.0937C22.5982 22.1775 20.5409 22.5282 19.1222 24.3447C16.9157 27.169 17.1591 30.993 19.7242 33.901C20.9021 35.2359 22.148 36.5106 23.5169 37.9764ZM49.8352 40.6435C49.7829 39.5835 49.7619 38.8453 49.707 38.1072C49.584 36.487 48.7542 35.5081 47.2021 35.2411C45.8227 35.0029 44.5218 35.2725 43.3204 36.0133C42.5954 36.4609 42.1688 37.0969 42.1845 37.945C42.2133 39.4683 42.3022 40.9916 42.3624 42.515C42.3886 43.2008 42.7577 43.3578 43.399 43.3212C44.5297 43.2583 45.6683 43.3447 46.7964 43.2583C47.7622 43.1851 48.9846 44.1012 49.584 43.2583C50.076 42.5647 49.7934 41.3241 49.8352 40.6409V40.6435ZM31.1572 8.47521C29.0659 8.47521 26.9745 8.46998 24.8832 8.47521C23.9645 8.47783 23.0536 8.56682 22.2265 9.01179C21.724 9.28138 21.4622 9.72896 21.4753 10.2943C21.4884 10.8833 21.8627 11.1555 22.3783 11.4303C23.3206 11.9355 24.2498 11.5769 25.1842 11.6004C29.2308 11.6973 33.2799 11.7784 37.3265 11.9224C38.2688 11.9564 39.1168 11.7601 39.9806 11.4434C40.5355 11.2418 40.9098 10.9147 40.9359 10.3414C40.9621 9.73682 40.669 9.2395 40.101 8.97776C39.2974 8.6087 38.4415 8.4726 37.5621 8.4726C35.4289 8.4726 33.293 8.4726 31.1598 8.4726L31.1572 8.47521ZM54.1435 85.9933C55.1513 86.0456 56.2061 85.6896 57.2609 85.2578C58.3288 84.8233 58.2739 84.3992 57.3813 83.8313C54.8215 82.198 52.2564 80.5699 49.9059 78.6383C49.6128 78.3975 49.3432 78.3713 48.9558 78.4995C46.8959 79.1748 46.5975 79.9156 47.7308 81.7164C48.359 82.7136 49.084 83.6245 49.9792 84.3992C51.1361 85.3965 52.4344 86.0116 54.1409 85.9933H54.1435ZM62.0561 81.3997C59.9569 80.7087 58.8183 78.476 56.6982 78.1619C54.7037 77.8661 52.6307 78.0991 50.5917 78.0991C52.4265 79.8999 54.3032 81.397 56.4626 82.4388C57.4494 82.9152 58.0016 84.4568 59.2894 83.9647C60.36 83.5564 61.1138 82.5199 61.9357 81.6797C61.9618 81.6535 61.9697 81.6038 62.0561 81.3997ZM46.6001 79.29C47.4193 78.7325 48.2072 77.9473 49.1154 77.9525C51.4266 77.963 52.4448 76.4553 53.4813 74.7906C54.1802 73.6651 55.1041 72.6757 55.5203 71.3513C51.2068 71.2309 46.3671 75.5157 46.6001 79.29ZM5.54033 84.9463C6.40932 84.9777 7.39609 84.8311 8.37763 84.6453C8.74669 84.5746 9.01891 84.517 9.01105 84.0223C8.9875 82.4178 7.80703 81.0934 5.93033 80.6223C4.10859 80.1668 2.11934 80.8238 1.42572 82.1116C0.81062 83.2554 1.1221 84.1218 2.32612 84.5563C3.32074 84.9149 4.35201 85.0117 5.53771 84.9437L5.54033 84.9463ZM61.0536 72.9427C60.2134 72.2936 59.4622 71.9638 58.6979 71.6706C56.761 70.9325 56.5699 71.0189 55.5203 72.8223C55.1722 73.4217 54.7508 73.9766 54.366 74.5524C53.7483 75.4712 53.1332 76.3899 52.3427 77.5651C53.7431 77.429 55.0099 77.997 55.8868 77.2641C57.5776 75.8559 59.2135 74.3718 61.0536 72.9401V72.9427ZM31.6781 7.22931C32.1989 7.22931 32.7198 7.21884 33.2407 7.22931C35.7901 7.2869 35.7639 7.29213 35.366 4.68254C35.264 4.01772 35.0546 3.89731 34.4499 4.09886C32.8062 4.6459 31.1336 4.6459 29.4428 4.31872C27.5504 3.95228 27.5949 3.9706 27.676 5.97818C27.7153 6.98066 28.0555 7.36018 29.0763 7.25025C29.9349 7.15864 30.8091 7.23193 31.6781 7.22669V7.22931ZM56.6798 77.3348C60.2317 77.2536 63.4669 77.4761 66.5659 75.6858C64.9405 75.0262 63.5192 74.3954 62.2079 73.5552C61.8964 73.3563 61.6373 73.2385 61.2813 73.5369C59.86 74.7383 58.4126 75.9083 56.6798 77.3348ZM57.9859 77.8452C59.3522 78.9628 60.3861 79.9575 61.6922 80.5673C62.0796 80.7479 62.522 81.1117 62.9852 80.6249C64.396 79.1382 65.8304 77.6724 67.4349 76.3009C64.5034 77.6253 61.4226 77.7588 57.9859 77.8478V77.8452ZM31.788 3.48376C32.746 3.47329 33.6883 3.37121 34.5887 3.01C34.8452 2.90792 35.0572 2.75349 35.0703 2.46034C35.086 2.1541 34.853 1.9735 34.6044 1.91068C32.6596 1.42383 30.7018 1.12806 28.7125 1.64893C28.3592 1.74054 28.0686 1.97611 28.1 2.38182C28.1262 2.72994 28.4377 2.86604 28.7282 2.96289C29.7202 3.29792 30.7384 3.48376 31.788 3.48376ZM45.8463 45.2842V45.2685C46.8383 45.2083 47.8329 45.1612 48.8249 45.0827C49.1521 45.0565 49.5892 45.0827 49.6311 44.6194C49.6756 44.1221 49.228 44.1404 48.9034 44.0802C47.0607 43.7373 45.2024 43.7609 43.3414 43.8263C42.6006 43.8525 42.53 44.2425 42.5614 44.8419C42.5954 45.5434 42.9723 45.5695 43.522 45.4963C44.2941 45.3942 45.0715 45.3523 45.8489 45.2842H45.8463ZM48.7124 45.7711C46.888 45.9046 45.205 46.0538 43.5194 46.1375C42.8938 46.1689 42.708 46.3705 42.7551 46.9987C42.8074 47.7028 43.1634 47.7237 43.7078 47.6478C45.3359 47.4175 46.9639 47.1819 48.6155 47.2133C49.1102 47.2238 49.6913 47.3337 49.6677 46.4778C49.6442 45.635 49.0291 45.8444 48.7124 45.7711ZM45.4798 49.3674C46.6524 49.3334 47.8067 49.1502 48.9662 49.0403C49.4609 48.9932 49.6572 48.755 49.6258 48.2838C49.5997 47.8912 49.3693 47.7577 49.0107 47.8284C47.1785 48.1844 45.3254 48.3152 43.4618 48.31C43.1267 48.31 42.8702 48.4016 42.8598 48.8099C42.8493 49.2942 43.1503 49.3701 43.5377 49.3674C44.1868 49.3622 44.8333 49.3674 45.4824 49.3674H45.4798ZM43.3283 50.2103C45.3097 49.9066 47.333 50.1631 49.3117 49.8229C47.3016 49.7287 45.2966 49.7391 43.3283 50.2103Z" fill="black"/>
<path d="M37.036 75.0765C34.0653 73.1998 32.4817 68.1324 33.5522 64.4392C34.9997 59.4373 37.4732 56.3696 39.8707 56.7413C35.9524 58.2961 34.6908 61.6202 33.9867 65.1642C33.2381 68.9202 34.6908 72.1528 37.036 75.0738V75.0765Z" fill="black"/>
<path d="M45.2078 75.4111C39.986 73.4087 37.8371 66.36 41.0068 61.6826C38.5569 67.4567 40.3027 71.9168 45.2078 75.4111Z" fill="black"/>
<path d="M46.3931 60.6152C45.4351 63.9786 47.0423 66.9835 47.7463 70.2317C45.9534 68.5304 45.1158 62.6621 46.3931 60.6152Z" fill="black"/>
<path d="M34.7089 31.8961C34.3765 30.8491 34.3817 29.8178 34.934 28.5117C34.9942 29.8545 35.057 30.8805 34.7089 31.8961Z" fill="black"/>
<path d="M33.6466 28.9697C34.0209 29.8597 33.877 30.7601 33.7409 31.6631C33.2435 30.7915 33.4189 29.878 33.6466 28.9697Z" fill="black"/>
<path d="M7.75183 76.0339C9.15478 72.715 14.8608 71.2728 19.7633 72.0868C15.5073 72.6155 10.9085 72.1208 7.75183 76.0339Z" fill="black"/>
<path d="M29.3828 65.5424C28.5714 61.5927 25.4331 60.6792 22.4099 59.6191C26.6057 59.771 30.4167 62.9485 29.3828 65.5424Z" fill="black"/>
<path d="M13.0495 61.2028C11.8272 61.9959 10.3535 62.153 9.59448 63.4329C9.95831 61.9671 11.3246 61.0981 13.0495 61.2028Z" fill="black"/>
<path d="M23.0303 50.4193C20.1354 50.3303 17.675 50.8512 16.0208 53.4372C16.2563 50.8826 20.617 48.9719 23.0303 50.4193Z" fill="black"/>
<path d="M30.1626 50.4121C31.4006 50.844 32.2278 51.6737 32.5418 52.9798C31.6205 52.2522 31.0237 51.2078 30.1626 50.4121Z" fill="black"/>
<path d="M29.8723 51.9668C31.3747 52.1736 31.7124 52.6735 31.4088 54.189C31.0475 53.2965 30.7884 52.5008 29.8723 51.9668Z" fill="black"/>
<path d="M19.5561 19.5837C16.6298 19.9397 15.3813 21.8557 14.761 24.4312C14.2951 26.3603 14.2767 28.2972 14.6301 30.3937C13.3659 28.8416 13.5936 24.7924 15.0148 22.3006C16.0121 20.5548 17.3627 19.3141 19.5561 19.5863V19.5837Z" fill="black"/>
<path d="M36.2926 80.156C38.9493 79.8236 41.962 81.6166 42.5849 83.8806C40.9778 81.8129 38.821 80.6743 36.2926 80.156Z" fill="black"/>
</svg>
