<svg width="90" height="65" viewBox="0 0 90 65" fill="none" xmlns="http://www.w3.org/2000/svg">
<path d="M66.2748 50.556C66.1236 51.0927 65.9928 51.5419 65.8707 51.994C64.8825 55.6372 62.8304 58.312 59.1825 59.645C56.7758 60.523 54.3575 61.3981 52.721 63.6091C52.2182 64.2887 51.4712 64.1254 51.3781 63.2649C51.0613 60.3305 49.4801 58.0086 47.925 55.6664C45.5765 52.1282 44.905 48.3741 46.4397 44.0834C45.0416 44.5063 43.7511 44.7659 42.4198 44.7601C40.3968 44.7514 38.461 44.4188 36.7519 43.2783C36.1763 42.8933 35.7374 42.9866 35.1532 43.2287C29.4765 45.5593 23.7911 47.8695 18.094 50.1505C16.2629 50.8827 14.6933 52.2332 12.6441 52.4549C10.8274 52.6503 9.28397 52.1515 8.162 50.661C6.74356 48.7738 7.30454 46.4373 9.41187 45.4164C10.1938 45.0372 11.0163 44.7484 11.8099 44.3926C12.1528 44.238 12.5656 44.0892 12.24 43.5467C11.9813 43.1179 11.743 42.8787 11.2227 43.2375C10.3856 43.8121 9.50197 44.3167 8.65323 44.8768C7.47313 45.6556 6.22327 46.2769 4.8397 46.5948C3.11315 46.9915 1.81096 46.3644 1.02617 44.7601C-0.328334 41.9891 0.779101 38.7746 3.77005 36.7153C4.47637 36.2282 5.75529 36.0794 5.83377 35.3531C5.90644 34.7027 4.9705 33.9472 4.50253 33.2238C-0.555053 25.4444 -0.197535 14.1998 5.33964 7.54348C8.62416 3.59401 13.205 2.13265 17.9371 0.887133C26.2676 -1.30637 33.0313 1.84971 39.1179 7.11178C42.01 9.61447 43.2628 13.1118 43.9923 17.2246C45.3526 14.2057 46.4252 11.528 46.6984 8.58189C46.7595 7.90518 46.8321 7.22554 46.9833 6.56632C47.1897 5.65625 47.9047 5.37331 48.4192 6.09962C50.3986 8.88817 53.4767 9.89158 56.3398 11.2596C57.7437 11.9305 59.136 12.648 60.1562 13.8527C60.7463 14.5499 61.2521 14.1619 61.8159 13.9519C68.1612 11.6067 74.5355 9.34029 81.0754 7.59599C85.9993 6.28338 90.275 10.0491 89.4408 14.9086C89.1995 16.3117 88.4729 17.3034 87.2027 17.9247C84.4675 19.2665 81.7585 20.6666 78.9943 21.9471C78.1106 22.3555 77.6456 22.8805 77.4043 23.8168C76.9712 25.5057 76.419 27.1625 75.8929 28.8251C75.3813 30.444 74.7622 32.0191 73.8001 33.5797C79.0466 35.0556 81.369 39.0984 82.9648 43.8296C83.9007 46.6007 84.9907 49.3134 87.5195 51.0956C87.9904 51.4281 88.063 51.8977 87.8538 52.3878C87.6183 52.9391 87.098 53.0003 86.6155 52.8691C84.3193 52.2419 82.1538 52.7757 79.9215 53.3533C75.8406 54.4063 71.9689 53.4554 68.2745 51.6206C67.6293 51.2998 67.0014 50.9468 66.2718 50.5589L66.2748 50.556ZM8.03702 35.7877C14.9694 37.7567 17.7569 41.852 17.1581 48.7154C17.4081 48.8496 17.6057 48.6717 17.8266 48.6075C22.1401 47.3036 26.1978 45.3289 30.3979 43.7246C31.6623 43.2433 32.8947 42.6804 34.1475 42.1641C34.6009 41.9774 34.9846 41.8024 34.4992 41.254C33.072 39.6351 31.9268 37.6575 29.4969 37.3162C29.1103 37.2608 28.7179 37.1674 28.6481 36.6716C28.5667 36.1028 28.9591 35.8898 29.3864 35.7469C30.9066 35.2423 32.0838 34.2535 33.1534 33.1042C34.88 31.2491 36.3769 29.1489 38.6906 27.8713C31.4559 30.0998 24.4015 32.7746 16.9692 35.0031C17.318 34.3526 17.7278 34.3381 18.0737 34.2185C20.9048 33.2384 23.7388 32.2641 26.5698 31.2812C32.0489 29.3793 37.5308 27.4775 43.007 25.5611C43.5389 25.3744 44.2452 25.4124 43.8819 24.3535C43.3035 22.6705 43.4052 22.6384 41.7048 23.3064C34.1911 26.2553 26.7501 29.3998 19.1085 32.0191C15.5507 33.2384 11.9901 34.4431 8.03992 35.7848L8.03702 35.7877ZM10.6268 33.2705C7.24641 29.1664 5.70879 24.5052 5.97911 19.2169C6.30756 12.7997 11.3913 6.72675 17.658 5.45499C20.6228 4.85411 23.6399 4.85702 26.628 5.16621C30.7729 5.59208 34.0981 7.55807 36.7199 10.8396C39.1353 13.8615 40.3009 17.2276 40.0916 21.0924C40.0713 21.4746 39.7922 21.9996 40.327 22.2446C40.8938 22.5042 42.6262 21.3871 42.6262 20.7541C42.6088 15.1507 41.1409 10.1541 36.3566 6.7355C30.3659 2.45059 23.9742 0.516688 16.5506 2.8502C11.4029 4.46616 6.75809 6.58091 4.47346 11.7467C1.41566 18.6598 1.79643 25.5465 5.67391 32.1037C7.31326 34.8748 7.40046 34.8252 10.2722 33.5709C10.3565 33.533 10.4176 33.4513 10.6268 33.2705ZM52.6077 61.4214C54.59 59.8346 56.7496 59.0821 58.8192 58.1516C61.316 57.0286 63.2751 55.3543 63.9988 52.6241C65.3156 47.6712 64.1151 43.1383 61.4875 38.8855C61.0835 38.2321 60.6504 38.3079 60.0313 38.5763C58.5954 39.1976 57.0781 39.3814 55.7323 38.4567C55.0144 37.9638 54.6714 38.1563 54.154 38.6317C52.6571 40.0114 51.1165 41.3503 49.3842 42.4237C48.4075 43.0275 47.7971 43.853 47.5559 44.9235C46.8583 48.0037 47.0763 50.9877 48.6575 53.7937C50.0324 56.2381 51.7386 58.5016 52.6106 61.4214H52.6077ZM48.0297 8.03352C48.0616 11.3617 46.8176 13.914 45.8846 16.5567C45.5619 17.4697 45.2742 18.4002 45.0649 19.3423C44.3557 22.5217 45.1608 25.1965 47.7797 27.2383C50.1632 29.0993 53.003 30.1581 55.5754 31.6954C56.3136 32.1358 57.985 31.1907 57.8745 30.514C57.3339 27.1917 58.1012 24.1785 59.9557 21.3987C61.2288 19.494 60.8509 16.4079 59.2 14.824C58.2088 13.8731 57.0229 13.2198 55.7934 12.6364C53.1803 11.3996 50.4393 10.3875 48.0326 8.0306L48.0297 8.03352ZM85.1128 51.1627C82.8049 48.3566 81.9532 45.2035 80.6772 42.2516C79.6076 39.781 78.1775 37.5408 75.8871 35.9978C74.6139 35.1402 73.21 34.7143 71.7829 35.4494C69.629 36.5607 67.3909 36.3828 65.1237 36.164C64.4988 36.1028 63.868 35.9861 63.2489 36.0386C62.4147 36.1115 62.0252 37.0128 62.5194 37.6808C64.7633 40.694 65.6498 44.1913 66.1033 47.8287C66.205 48.6454 66.5102 49.2259 67.1903 49.5788C70.7219 51.4194 74.4308 52.6182 78.4507 51.9765C80.5668 51.6381 82.6131 50.8827 85.1128 51.1598V51.1627ZM78.5437 17.0438C75.2069 17.9364 72.091 17.7439 69.0274 18.1376C64.0308 18.7794 60.3626 21.8567 59.2755 26.7454C58.95 28.2126 58.7407 29.9015 59.6214 31.147C60.5283 32.4246 62.2287 33.0313 63.0658 34.4897C63.0949 34.5393 63.2489 34.5131 63.3477 34.5218C64.7458 34.6531 66.1381 34.8427 67.5391 34.901C70.0621 35.006 71.9137 33.848 73.0821 31.6341C73.5065 30.8261 73.7914 29.9394 74.1053 29.076C75.5266 25.1732 76.1603 20.9845 78.5466 17.0467L78.5437 17.0438ZM31.61 36.3682C33.415 37.5029 34.5806 39.0838 35.9235 40.4752C38.1761 42.8116 40.795 43.7509 44.065 43.0683C47.117 42.4324 49.3086 40.4606 51.6252 38.6551C53.1221 37.4883 54.7005 36.4382 54.6801 34.0814C54.6743 33.2617 54.6539 32.9029 53.9796 32.5646C51.9885 31.5699 49.8754 30.7444 48.1518 29.3297C46.7246 28.1572 45.2102 27.9938 43.5331 28.1542C40.609 28.4372 38.1674 29.6652 36.2199 31.8908C34.848 33.4572 33.4499 35.0002 31.61 36.3653V36.3682ZM62.0281 19.1177C65.0801 17.0846 68.3239 16.7317 71.6259 16.5013C74.3669 16.3087 77.1253 16.0929 79.6919 14.9407C80.1686 14.7278 80.7092 14.3282 81.1539 14.8299C81.6451 15.3841 81.1888 15.9208 80.8574 16.3904C79.9854 17.6359 79.157 18.8989 78.6251 20.7191C81.2876 19.4094 83.6536 18.2339 86.0313 17.0788C87.6299 16.3029 88.2694 14.9466 88.1648 13.281C88.0514 11.4696 87.2201 9.99659 85.4499 9.31404C83.892 8.71316 82.2788 8.53231 80.622 9.03985C74.9889 10.7725 69.4837 12.8639 63.9523 14.8882C61.7694 15.6874 61.7752 15.6962 62.0223 17.9568C62.0543 18.2397 62.0252 18.5314 62.0252 19.1148L62.0281 19.1177ZM22.5005 21.1245C18.9195 17.1692 15.2455 13.8177 11.3739 10.6704C10.6734 10.1016 10.4379 10.6966 10.1298 11.0613C7.92366 13.6748 6.8511 16.6938 6.70868 20.127C6.65345 21.4629 7.26385 21.8479 8.3335 21.9529C10.3623 22.1542 12.3999 22.0638 14.4258 21.9179C17.0157 21.7342 19.62 21.6437 22.5005 21.1216V21.1245ZM23.4655 20.3282C23.5731 20.3895 23.6806 20.4507 23.7882 20.512C27.1802 17.0905 30.8426 13.9461 33.915 10.2037C34.4789 9.5153 34.1213 9.19444 33.6156 8.81525C30.895 6.76759 27.7761 5.89252 24.4335 5.665C23.794 5.62125 23.451 5.76709 23.4539 6.51965C23.4772 11.1225 23.4655 15.7283 23.4655 20.3311V20.3282ZM22.7825 19.5757C22.7825 15.0749 22.7825 10.7316 22.7854 6.38548C22.7854 5.88669 22.5645 5.6825 22.0791 5.71751C18.469 5.96253 14.9694 6.51965 12.118 9.0661C11.5453 9.57656 11.4204 9.80991 12.1557 10.3145C15.481 12.6043 18.3324 15.4366 21.0966 18.3622C21.4745 18.7619 21.771 19.2898 22.7854 19.5786L22.7825 19.5757ZM24.8927 20.8095C29.6335 20.1095 34.101 19.1731 38.6732 19.8878C39.3504 19.9928 39.3388 19.5786 39.2894 19.0827C38.9871 15.9966 37.8419 13.2927 35.8334 10.9212C35.191 10.1629 34.8771 10.3087 34.3161 10.9971C33.3365 12.193 32.2582 13.3131 31.1798 14.4244C29.1655 16.5013 27.1192 18.5518 24.8927 20.8095ZM21.9395 22.2971C21.6518 22.2388 21.5268 22.1834 21.4076 22.1921C16.7919 22.5509 12.1848 23.2714 7.53998 22.5509C7.15921 22.4926 6.82785 22.4984 6.92086 23.0263C7.46441 26.1795 8.36547 29.181 10.4844 31.7187C13.8358 27.9442 18.3266 25.7653 21.9425 22.2971H21.9395ZM31.7175 23.4814C32.514 23.3297 32.7814 23.9627 33.2261 24.2748C33.5633 24.511 33.7754 24.9398 34.3364 24.7065C35.7607 24.1114 37.2111 23.5747 38.6441 23.003C39.4173 22.6938 39.24 21.9617 39.2806 21.3725C39.333 20.5937 38.6441 20.7833 38.2255 20.7278C33.5778 20.0949 29.0492 20.9554 24.2823 21.7779C25.5176 23.1401 26.5757 24.3244 27.6511 25.494C28.6161 26.5402 29.7081 26.6666 30.9269 25.8732C30.4909 25.2169 29.5288 25.2869 29.0347 24.5198C29.7061 24.1348 30.1712 24.5985 30.6799 24.7415C31.3716 24.9369 32.0751 26.0366 32.6971 25.2403C33.2116 24.584 31.7611 24.3477 31.7117 23.4785L31.7175 23.4814ZM9.98738 50.3197C10.6792 51.3319 11.5628 51.3552 12.3941 51.1014C14.2456 50.5326 15.4897 49.2784 15.8501 47.3474C16.8442 42.0211 11.8767 36.7795 6.4994 37.427C3.85725 37.745 1.81968 39.956 1.80515 42.5229C1.79643 44.3109 2.7876 45.361 4.59554 45.4806C3.09861 43.5846 2.96491 42.1787 4.22058 40.869C4.9734 40.0843 5.889 39.5739 7.00516 39.4455C10.5193 39.043 14.2805 42.2662 14.452 45.8656C14.4985 46.8369 14.452 47.782 13.9433 48.6833C13.0713 50.2176 11.6413 50.3926 9.98448 50.3255L9.98738 50.3197ZM22.6313 23.0526C19.7014 25.2169 17.1058 27.1392 14.5014 29.0556C13.4463 29.8315 12.4144 30.6249 11.6238 31.6866C11.4 31.9841 11.0716 32.2846 11.3593 32.7163C11.6558 33.1655 12.0249 32.935 12.3854 32.8125C14.3445 32.1416 16.3035 31.4707 18.2655 30.8086C18.5882 30.7007 18.873 30.584 19.1085 30.2982C19.8671 29.3735 19.8816 29.3852 20.7333 29.8344C21.2158 30.0881 22.6197 29.1635 22.6255 28.548C22.6459 26.8183 22.6313 25.0886 22.6313 23.0526ZM58.2902 32.7221C56.709 32.6988 55.7178 33.8364 55.7091 35.6857C55.7032 36.8583 56.4735 37.605 57.7321 37.6487C59.3714 37.7071 61.2346 36.5082 61.2898 35.3619C61.3567 33.9151 60.0284 32.7483 58.2902 32.7221ZM23.5847 22.2621C23.5847 24.4469 23.5789 26.267 23.5847 28.0872C23.5847 28.7289 23.9451 28.796 24.4538 28.5947C25.3985 28.2242 26.3431 27.8626 27.2878 27.4921C27.6366 27.355 27.9331 27.1771 27.5726 26.7687C26.3141 25.3394 25.0468 23.9131 23.5818 22.2621H23.5847ZM7.15049 42.9721C6.74646 43.3396 7.02841 44.1446 6.26687 43.9901C5.87447 43.9084 5.55183 43.6809 5.41231 43.2812C5.2321 42.7737 5.34255 42.3333 5.74367 41.9599C6.54009 41.2161 7.84227 41.5224 8.45558 42.5608C8.66486 42.9166 8.47011 43.4621 9.01365 43.6838C9.69381 43.2462 10.3769 42.8087 11.1123 42.3391C10.3856 41.4407 9.45837 41.0644 8.47883 40.8019C7.18537 40.4577 5.53439 41.1315 4.94143 42.2049C4.62461 42.7795 4.63042 43.3279 5.12164 43.7946C5.60996 44.2584 6.12444 44.8651 6.86854 44.4976C7.3743 44.2497 7.50219 43.6896 7.15049 42.975V42.9721ZM13.1644 46.4198C13.1992 44.8476 12.9202 44.7047 11.5163 45.2968C10.7344 45.6264 10.8855 45.9298 11.1907 46.5132C11.4523 47.0149 11.589 47.6478 10.9611 48.0708C10.5949 48.3187 10.3187 48.1058 10.1211 47.7995C9.93797 47.5166 10.0339 46.9128 9.42931 47.149C9.252 47.2191 9.07469 47.5137 9.05725 47.7208C9.02237 48.1408 9.30432 48.4121 9.65893 48.6221C10.3856 49.0538 11.1268 49.0596 11.8651 48.6979C12.8039 48.24 13.0568 47.3649 13.1644 46.4198ZM40.9665 27.1742C42.3152 26.83 43.6929 26.9729 45.1143 26.8971C44.3964 25.6545 43.6523 25.7128 40.9665 27.1742Z" fill="black"/>
<path d="M22.7269 41.8135C21.8081 42.5038 20.7332 42.7492 19.7572 43.2427C20.4834 42.1641 21.4255 41.5655 22.7269 41.8135Z" fill="black"/>
<path d="M24.2121 43.2642L21.5342 46.2119C21.4358 46.0572 21.3408 45.9026 21.2424 45.7479C21.8226 44.2559 22.5929 43.064 24.2121 43.2642Z" fill="black"/>
<path d="M55.4822 58.0911C55.0757 57.6807 54.9338 57.6055 54.9065 57.4957C53.7633 53.073 53.2067 48.6706 55.4549 44.4069C56.0552 43.268 56.7645 41.6376 57.8777 41.7648C59.0673 41.9007 59.1955 43.7449 59.5011 44.9619C59.9731 46.8437 59.9513 48.7659 59.512 50.6651C59.1246 52.333 58.4371 53.8014 57.1029 54.8854C56.2025 55.6168 54.811 56.0243 55.4849 58.0911H55.4822ZM57.7686 42.5684C55.0866 45.2105 53.8506 50.1939 54.9474 53.6656C55.4113 55.134 55.6213 55.1889 56.7182 54.131C59.3238 51.6132 59.7985 46.6095 57.7686 42.5684Z" fill="black"/>
<path d="M49.4583 17.3724C49.4344 16.4877 49.537 15.6264 49.692 14.7738C49.7755 14.3125 49.7636 13.6964 50.1882 13.565C50.608 13.4336 50.8751 13.9767 51.1351 14.3125C53.0171 16.7475 53.4369 19.8512 53.7446 23.0016C53.7636 23.1943 53.7875 23.3899 53.7708 23.5826C53.7183 24.187 54.1572 25.0425 53.6969 25.3316C53.1697 25.6644 52.5996 25.0191 52.1202 24.6104C50.0641 22.8439 49.5203 20.2395 49.4583 17.3724ZM53.1292 24.2921C53.1578 20.2103 52.1894 16.6979 50.5197 14.8409C49.4249 18.1753 50.9037 23.2235 53.1292 24.2921Z" fill="black"/>
<path d="M49.391 12.0605C49.5403 13.9216 49.5231 13.9558 48.2708 15.0302C47.6907 14.0014 47.8917 13.3487 49.391 12.0605Z" fill="black"/>
<path d="M77.9446 49.1792C73.1304 49.1373 68.6923 45.7325 67.4771 41.1497C66.9301 39.0869 67.4336 38.5108 69.5563 38.9034C74.2306 39.7659 77.7022 42.4145 80.0082 46.6851C81.1084 48.7222 80.8443 49.1245 78.5662 49.1792C78.3579 49.1856 78.1528 49.1792 77.9446 49.1792ZM79.3525 48.0496C79.0448 43.5023 71.7256 39.0869 68.1764 39.9204C68.944 45.1532 73.7054 48.6128 79.3525 48.0496Z" fill="black"/>
<path d="M74.6969 35.8184C76.8233 36.1347 79.1134 39.9401 79.1514 43.2426C77.7183 40.7309 77.2415 37.5487 74.6969 35.8184Z" fill="black"/>
<path d="M74.6934 50.6674C71.6219 50.6455 68.1438 48.5317 67.2726 46.2129C68.2839 47.0599 69.1312 48.0094 70.3714 48.7099C71.6458 49.4299 73.1047 49.9449 74.6968 50.665L74.6934 50.6674Z" fill="black"/>
<path d="M73.2114 22.8448C73.0992 24.2547 72.6013 25.5004 71.548 26.4884C69.378 28.5268 66.644 29.3422 63.7949 29.8461C62.5027 30.0754 62.8193 29.0449 62.9459 28.456C63.4179 26.2506 64.7244 24.5435 66.4828 23.1478C67.8182 22.0889 69.4039 21.5595 71.0156 21.1207C72.633 20.6819 73.2258 21.183 73.2114 22.842V22.8448ZM63.4841 29.1072C66.0281 28.6542 68.2211 28.1135 70.0946 26.7008C71.3696 25.741 72.0631 24.4557 72.3682 22.9184C72.5927 21.7945 72.1667 21.418 71.0789 21.7067C67.2311 22.7288 64.7388 25.1182 63.4812 29.1072H63.4841Z" fill="black"/>
<path d="M73.2122 28.3936C72.4113 30.7758 67.9105 33.4274 65.788 32.7367C69.0318 32.5845 70.6491 29.9417 73.2122 28.3936Z" fill="black"/>
<path d="M67.2723 19.4844C65.3437 20.976 63.5851 22.6066 62.8299 25.4238C62.6404 22.9206 64.6971 20.2 67.2723 19.4844Z" fill="black"/>
<path d="M37.9605 38.3768C39.9646 40.3827 42.6242 40.7206 45.2349 41.6612C42.2734 42.2669 37.5034 39.8927 36.2526 37.3723C35.991 36.8426 36.0025 36.7057 36.6235 36.5626C37.0146 36.4713 37.305 35.896 37.6471 35.5459C40.9163 32.2158 46.8825 31.9419 50.4823 34.8702C51.2241 35.4759 50.9424 35.7803 50.4881 36.246C49.0361 37.7345 47.2994 38.6994 45.3097 38.9003C42.8514 39.1469 40.3642 39.3447 37.9634 38.3798L37.9605 38.3768ZM49.8756 35.4759C46.2672 32.9464 41.2268 33.2264 38.3573 35.9751C37.4372 36.8579 37.7938 37.2353 38.665 37.6188C41.4683 38.8547 47.6128 38.392 49.8756 35.4759Z" fill="black"/>
<path d="M37.5999 34.3335C37.1869 30.9402 42.1844 29.5273 46.485 29.9524C43.3745 31.0227 39.2004 29.9324 37.5999 34.3335Z" fill="black"/>
<path d="M84.4829 15.0302C84.5843 12.7894 84.3633 10.8798 83.6068 9.09082C85.164 10.5981 85.5643 13.1206 84.4829 15.0302Z" fill="black"/>
<path d="M82.9956 16.5146C81.7613 15.5393 81.912 14.5494 82.9669 13.5449C83.7492 14.5173 83.8784 15.5043 82.9956 16.5146Z" fill="black"/>
<path d="M10.848 15.1526C12.6389 14.809 14.161 15.1589 15.3026 16.5141C13.7176 16.3408 12.3527 15.5213 10.848 15.1526Z" fill="black"/>
<path d="M13.8187 18.7897C13.3324 19.9087 12.8427 19.4062 12.3339 19.1213C12.6817 17.7329 13.1074 17.6449 13.8187 18.7897Z" fill="black"/>
<path d="M25.6975 12.06C25.689 11.2809 26.1266 10.7558 27.1822 10.5752C26.8633 11.1696 26.1322 11.5308 25.6975 12.06Z" fill="black"/>
<path d="M19.7583 13.5449C17.0852 12.8174 16.4156 11.8829 16.9674 10.5752C17.4655 11.5599 18.6923 12.3219 19.7583 13.5449Z" fill="black"/>
<path d="M34.6057 15.8402C33.6233 16.3582 32.6152 16.2023 31.636 16.5141C32.5064 14.8344 33.4984 14.5376 34.6057 15.8402Z" fill="black"/>
<path d="M15.3026 24.1401C13.5265 25.8186 12.2017 25.6202 10.848 24.8546C12.1223 24.1458 13.4074 23.6411 15.3026 24.1401Z" fill="black"/>
<path d="M19.7583 26.9092C18.7684 27.8991 17.7785 28.889 16.7886 29.8789C16.9456 28.2237 17.8187 27.1374 19.7583 26.9092Z" fill="black"/>
</svg>
