<svg width="150" height="150" viewBox="0 0 150 150" fill="none" xmlns="http://www.w3.org/2000/svg">
<path d="M75 138.636C110.145 138.636 138.636 110.146 138.636 75.0001C138.636 39.8547 110.145 11.3638 75 11.3638C39.8546 11.3638 11.3636 39.8547 11.3636 75.0001C11.3636 110.146 39.8546 138.636 75 138.636Z" fill="white"/>
<path d="M96.2747 93.5565C96.1236 94.0932 95.9928 94.5424 95.8707 94.9945C94.8825 98.6377 92.8304 101.312 89.1825 102.646C86.7758 103.523 84.3575 104.399 82.721 106.61C82.2182 107.289 81.4712 107.126 81.3781 106.265C81.0613 103.331 79.4801 101.009 77.925 98.6669C75.5765 95.1287 74.905 91.3746 76.4397 87.0839C75.0416 87.5068 73.7511 87.7664 72.4198 87.7606C70.3968 87.7519 68.461 87.4193 66.7519 86.2788C66.1763 85.8938 65.7374 85.9871 65.1532 86.2292C59.4765 88.5598 53.7911 90.87 48.094 93.151C46.2629 93.8832 44.6933 95.2337 42.6441 95.4554C40.8274 95.6508 39.284 95.152 38.162 93.6615C36.7436 91.7742 37.3045 89.4378 39.4119 88.4169C40.1938 88.0377 41.0163 87.7489 41.8099 87.3931C42.1528 87.2385 42.5656 87.0897 42.24 86.5472C41.9813 86.1184 41.743 85.8792 41.2227 86.238C40.3856 86.8126 39.502 87.3172 38.6532 87.8773C37.4731 88.6561 36.2233 89.2774 34.8397 89.5953C33.1131 89.992 31.811 89.3649 31.0262 87.7606C29.6717 84.9896 30.7791 81.7751 33.77 79.7158C34.4764 79.2287 35.7553 79.0799 35.8338 78.3536C35.9064 77.7032 34.9705 76.9477 34.5025 76.2243C29.4449 68.4449 29.8025 57.2003 35.3396 50.544C38.6242 46.5945 43.205 45.1331 47.9371 43.8876C56.2676 41.6941 63.0313 44.8502 69.1179 50.1123C72.01 52.615 73.2628 56.1123 73.9923 60.2251C75.3526 57.2062 76.4252 54.5284 76.6984 51.5824C76.7595 50.9057 76.8321 50.226 76.9833 49.5668C77.1897 48.6567 77.9047 48.3738 78.4192 49.1001C80.3986 51.8887 83.4767 52.8921 86.3398 54.2601C87.7437 54.931 89.136 55.6485 90.1562 56.8532C90.7463 57.5503 91.2521 57.1624 91.8159 56.9524C98.1612 54.6072 104.535 52.3408 111.075 50.5965C115.999 49.2839 120.275 53.0496 119.441 57.9091C119.2 59.3121 118.473 60.3039 117.203 60.9252C114.467 62.267 111.758 63.6671 108.994 64.9476C108.111 65.3559 107.646 65.881 107.404 66.8173C106.971 68.5062 106.419 70.163 105.893 71.8256C105.381 73.4445 104.762 75.0196 103.8 76.5802C109.047 78.0561 111.369 82.0989 112.965 86.8301C113.901 89.6012 114.991 92.3139 117.519 94.0961C117.99 94.4286 118.063 94.8982 117.854 95.3883C117.618 95.9396 117.098 96.0008 116.616 95.8696C114.319 95.2424 112.154 95.7762 109.921 96.3538C105.841 97.4068 101.969 96.4559 98.2745 94.6211C97.6292 94.3003 97.0014 93.9473 96.2718 93.5594L96.2747 93.5565ZM38.037 78.7882C44.9694 80.7571 47.7569 84.8525 47.1581 91.7159C47.4081 91.8501 47.6057 91.6722 47.8266 91.608C52.1401 90.3041 56.1978 88.3294 60.3979 86.7251C61.6623 86.2438 62.8947 85.6809 64.1475 85.1646C64.6009 84.9779 64.9846 84.8029 64.4992 84.2545C63.072 82.6356 61.9268 80.658 59.4969 80.3167C59.1103 80.2613 58.7179 80.1679 58.6481 79.6721C58.5667 79.1033 58.9591 78.8903 59.3864 78.7474C60.9066 78.2428 62.0838 77.254 63.1534 76.1047C64.88 74.2496 66.3769 72.1494 68.6906 70.8718C61.4559 73.1003 54.4015 75.7751 46.9692 78.0036C47.318 77.3531 47.7278 77.3385 48.0737 77.2189C50.9048 76.2389 53.7388 75.2646 56.5698 74.2816C62.0489 72.3798 67.5308 70.478 73.007 68.5616C73.5389 68.3749 74.2452 68.4129 73.8819 67.354C73.3035 65.671 73.4052 65.6389 71.7048 66.3069C64.1911 69.2558 56.7501 72.4002 49.1085 75.0196C45.5507 76.2389 41.9901 77.4436 38.0399 78.7853L38.037 78.7882ZM40.6268 76.271C37.2464 72.1669 35.7088 67.5057 35.9791 62.2174C36.3076 55.8002 41.3913 49.7272 47.658 48.4555C50.6228 47.8546 53.6399 47.8575 56.628 48.1667C60.7729 48.5926 64.0981 50.5586 66.7199 53.8401C69.1353 56.862 70.3009 60.2281 70.0916 64.0929C70.0713 64.475 69.7922 65.0001 70.327 65.2451C70.8938 65.5047 72.6262 64.3875 72.6262 63.7546C72.6088 58.1512 71.1409 53.1546 66.3566 49.736C60.3659 45.4511 53.9742 43.5172 46.5506 45.8507C41.4029 47.4666 36.7581 49.5814 34.4735 54.7472C31.4157 61.6602 31.7964 68.547 35.6739 75.1042C37.3133 77.8753 37.4005 77.8257 40.2722 76.5714C40.3565 76.5335 40.4176 76.4518 40.6268 76.271ZM82.6077 104.422C84.59 102.835 86.7496 102.083 88.8192 101.152C91.316 100.029 93.2751 98.3548 93.9988 95.6245C95.3156 90.6717 94.1151 86.1388 91.4875 81.886C91.0835 81.2326 90.6504 81.3084 90.0313 81.5768C88.5954 82.1981 87.0781 82.3819 85.7323 81.4572C85.0144 80.9642 84.6714 81.1568 84.154 81.6322C82.6571 83.0119 81.1165 84.3508 79.3842 85.4242C78.4075 86.028 77.7971 86.8534 77.5559 87.9239C76.8583 91.0042 77.0763 93.9882 78.6575 96.7942C80.0324 99.2386 81.7386 101.502 82.6106 104.422H82.6077ZM78.0297 51.034C78.0616 54.3622 76.8176 56.9145 75.8846 59.5572C75.5619 60.4702 75.2742 61.4006 75.0649 62.3428C74.3557 65.5222 75.1608 68.197 77.7797 70.2388C80.1632 72.0998 83.003 73.1586 85.5754 74.6958C86.3136 75.1363 87.985 74.1912 87.8745 73.5145C87.3339 70.1922 88.1012 67.179 89.9557 64.3992C91.2288 62.4945 90.8509 59.4084 89.2 57.8245C88.2088 56.8736 87.0229 56.2202 85.7934 55.6369C83.1803 54.4001 80.4393 53.3879 78.0326 51.0311L78.0297 51.034ZM115.113 94.1632C112.805 91.3571 111.953 88.204 110.677 85.2521C109.608 82.7815 108.178 80.5413 105.887 78.9983C104.614 78.1407 103.21 77.7148 101.783 78.4499C99.629 79.5612 97.3909 79.3833 95.1237 79.1645C94.4988 79.1033 93.868 78.9866 93.2489 79.0391C92.4147 79.112 92.0252 80.0133 92.5194 80.6813C94.7633 83.6945 95.6498 87.1918 96.1033 90.8292C96.205 91.6459 96.5102 92.2264 97.1903 92.5793C100.722 94.4199 104.431 95.6187 108.451 94.977C110.567 94.6386 112.613 93.8832 115.113 94.1603V94.1632ZM108.544 60.0443C105.207 60.9369 102.091 60.7443 99.0274 61.1381C94.0308 61.7798 90.3626 64.8572 89.2755 69.7459C88.95 71.2131 88.7407 72.902 89.6214 74.1475C90.5283 75.4251 92.2287 76.0318 93.0658 77.4902C93.0949 77.5398 93.2489 77.5136 93.3477 77.5223C94.7458 77.6536 96.1381 77.8432 97.5391 77.9015C100.062 78.0065 101.914 76.8485 103.082 74.6346C103.507 73.8266 103.791 72.9399 104.105 72.0765C105.527 68.1737 106.16 63.985 108.547 60.0472L108.544 60.0443ZM61.61 79.3687C63.415 80.5034 64.5806 82.0843 65.9235 83.4757C68.1761 85.8121 70.795 86.7514 74.065 86.0688C77.117 85.4329 79.3086 83.4611 81.6252 81.6555C83.1221 80.4888 84.7005 79.4387 84.6801 77.0819C84.6743 76.2622 84.6539 75.9034 83.9796 75.5651C81.9885 74.5704 79.8754 73.7449 78.1518 72.3302C76.7246 71.1576 75.2102 70.9943 73.5331 71.1547C70.609 71.4377 68.1674 72.6657 66.2199 74.8913C64.848 76.4576 63.4499 78.0007 61.61 79.3658V79.3687ZM92.0281 62.1182C95.0801 60.0851 98.3239 59.7322 101.626 59.5017C104.367 59.3092 107.125 59.0934 109.692 57.9412C110.169 57.7283 110.709 57.3287 111.154 57.8304C111.645 58.3846 111.189 58.9213 110.857 59.3909C109.985 60.6364 109.157 61.8994 108.625 63.7196C111.288 62.4099 113.654 61.2344 116.031 60.0793C117.63 59.3034 118.269 57.947 118.165 56.2815C118.051 54.4701 117.22 52.9971 115.45 52.3145C113.892 51.7136 112.279 51.5328 110.622 52.0403C104.989 53.773 99.4837 55.8644 93.9523 57.8887C91.7694 58.6879 91.7752 58.6967 92.0223 60.9573C92.0543 61.2402 92.0252 61.5319 92.0252 62.1153L92.0281 62.1182ZM52.5005 64.125C48.9195 60.1697 45.2455 56.8182 41.3739 53.6709C40.6734 53.1021 40.4379 53.6971 40.1298 54.0617C37.9237 56.6753 36.8511 59.6943 36.7087 63.1274C36.6535 64.4634 37.2638 64.8484 38.3335 64.9534C40.3623 65.1547 42.3999 65.0643 44.4258 64.9184C47.0157 64.7346 49.62 64.6442 52.5005 64.1221V64.125ZM53.4655 63.3287C53.5731 63.39 53.6806 63.4512 53.7882 63.5125C57.1802 60.091 60.8426 56.9465 63.915 53.2042C64.4789 52.5158 64.1213 52.1949 63.6156 51.8157C60.895 49.7681 57.7761 48.893 54.4335 48.6655C53.794 48.6217 53.451 48.7676 53.4539 49.5201C53.4772 54.123 53.4655 58.7288 53.4655 63.3316V63.3287ZM52.7825 62.5761C52.7825 58.0754 52.7825 53.7321 52.7854 49.386C52.7854 48.8872 52.5645 48.683 52.0791 48.718C48.469 48.963 44.9694 49.5201 42.118 52.0666C41.5454 52.577 41.4204 52.8104 42.1557 53.315C45.481 55.6048 48.3324 58.4371 51.0966 61.3627C51.4745 61.7623 51.771 62.2903 52.7854 62.5791L52.7825 62.5761ZM54.8927 63.81C59.6335 63.1099 64.101 62.1736 68.6732 62.8883C69.3504 62.9933 69.3388 62.5791 69.2894 62.0832C68.9871 58.9971 67.8419 56.2932 65.8334 53.9217C65.191 53.1633 64.8771 53.3092 64.3161 53.9976C63.3365 55.1935 62.2582 56.3136 61.1798 57.4249C59.1655 59.5017 57.1192 61.5523 54.8927 63.81ZM51.9395 65.2976C51.6518 65.2393 51.5268 65.1839 51.4076 65.1926C46.7919 65.5514 42.1848 66.2719 37.54 65.5514C37.1592 65.493 36.8278 65.4989 36.9209 66.0268C37.4644 69.18 38.3655 72.1815 40.4844 74.7192C43.8358 70.9447 48.3266 68.7658 51.9425 65.2976H51.9395ZM61.7175 66.4819C62.514 66.3302 62.7814 66.9632 63.2261 67.2753C63.5633 67.5115 63.7754 67.9403 64.3364 67.707C65.7607 67.1119 67.2111 66.5752 68.6441 66.0035C69.4173 65.6943 69.24 64.9622 69.2807 64.373C69.333 63.5941 68.6441 63.7837 68.2255 63.7283C63.5778 63.0954 59.0492 63.9558 54.2823 64.7784C55.5176 66.1406 56.5757 67.3249 57.6511 68.4945C58.6161 69.5407 59.7081 69.6671 60.9269 68.8737C60.4909 68.2174 59.5288 68.2874 59.0347 67.5203C59.7061 67.1353 60.1712 67.599 60.6799 67.742C61.3716 67.9374 62.0751 69.0371 62.6971 68.2408C63.2116 67.5845 61.7611 67.3482 61.7117 66.479L61.7175 66.4819ZM39.9874 93.3202C40.6792 94.3324 41.5628 94.3557 42.3941 94.1019C44.2456 93.5331 45.4897 92.2789 45.8501 90.3479C46.8442 85.0216 41.8767 79.78 36.4994 80.4275C33.8572 80.7455 31.8197 82.9565 31.8052 85.5233C31.7964 87.3114 32.7876 88.3615 34.5955 88.4811C33.0986 86.5851 32.9649 85.1791 34.2206 83.8695C34.9734 83.0848 35.889 82.5744 37.0052 82.446C40.5193 82.0435 44.2805 85.2667 44.452 88.8661C44.4985 89.8374 44.452 90.7825 43.9433 91.6838C43.0713 93.2181 41.6413 93.3931 39.9845 93.326L39.9874 93.3202ZM52.6313 66.0531C49.7014 68.2174 47.1058 70.1397 44.5014 72.0561C43.4463 72.8319 42.4144 73.6253 41.6238 74.6871C41.4 74.9846 41.0716 75.2851 41.3593 75.7168C41.6558 76.166 42.0249 75.9355 42.3854 75.813C44.3445 75.1421 46.3035 74.4712 48.2655 73.8091C48.5882 73.7012 48.873 73.5845 49.1085 73.2986C49.8671 72.374 49.8816 72.3857 50.7333 72.8349C51.2158 73.0886 52.6197 72.164 52.6255 71.5485C52.6459 69.8188 52.6313 68.0891 52.6313 66.0531ZM88.2902 75.7226C86.709 75.6992 85.7178 76.8368 85.7091 78.6861C85.7032 79.8587 86.4735 80.6055 87.7321 80.6492C89.3714 80.7076 91.2346 79.5087 91.2898 78.3624C91.3567 76.9156 90.0284 75.7488 88.2902 75.7226ZM53.5847 65.2626C53.5847 67.4474 53.5789 69.2675 53.5847 71.0876C53.5847 71.7294 53.9451 71.7964 54.4538 71.5952C55.3985 71.2247 56.3431 70.863 57.2878 70.4926C57.6366 70.3555 57.9331 70.1776 57.5726 69.7692C56.3141 68.3399 55.0468 66.9136 53.5818 65.2626H53.5847ZM37.1505 85.9725C36.7465 86.3401 37.0284 87.1451 36.2669 86.9905C35.8745 86.9089 35.5518 86.6813 35.4123 86.2817C35.2321 85.7742 35.3425 85.3337 35.7437 84.9604C36.5401 84.2166 37.8423 84.5228 38.4556 85.5613C38.6649 85.9171 38.4701 86.4626 39.0137 86.6843C39.6938 86.2467 40.3769 85.8092 41.1123 85.3396C40.3856 84.4412 39.4584 84.0649 38.4788 83.8024C37.1854 83.4582 35.5344 84.132 34.9414 85.2054C34.6246 85.78 34.6304 86.3284 35.1216 86.7951C35.61 87.2589 36.1244 87.8656 36.8685 87.4981C37.3743 87.2501 37.5022 86.6901 37.1505 85.9755V85.9725ZM43.1644 89.4203C43.1992 87.8481 42.9202 87.7052 41.5163 88.2973C40.7344 88.6269 40.8855 88.9303 41.1907 89.5137C41.4523 90.0154 41.589 90.6483 40.9611 91.0713C40.5949 91.3192 40.3187 91.1063 40.1211 90.8C39.938 90.5171 40.0339 89.9133 39.4293 90.1495C39.252 90.2195 39.0747 90.5141 39.0573 90.7212C39.0224 91.1413 39.3043 91.4126 39.6589 91.6226C40.3856 92.0543 41.1268 92.0601 41.8651 91.6984C42.8039 91.2405 43.0568 90.3654 43.1644 89.4203ZM70.9665 70.1747C72.3152 69.8305 73.6929 69.9734 75.1143 69.8975C74.3964 68.655 73.6523 68.7133 70.9665 70.1747Z" fill="black"/>
<path d="M52.7269 84.814C51.8081 85.5043 50.7332 85.7497 49.7572 86.2431C50.4834 85.1646 51.4255 84.566 52.7269 84.814Z" fill="black"/>
<path d="M54.2121 86.2647L51.5342 89.2124C51.4358 89.0577 51.3408 88.9031 51.2424 88.7484C51.8226 87.2563 52.5929 86.0645 54.2121 86.2647Z" fill="black"/>
<path d="M85.4822 101.092C85.0757 100.681 84.9338 100.606 84.9065 100.496C83.7633 96.0735 83.2067 91.671 85.4549 87.4074C86.0552 86.2684 86.7645 84.6381 87.8777 84.7653C89.0673 84.9012 89.1955 86.7454 89.5011 87.9624C89.9731 89.8442 89.9513 91.7664 89.512 93.6656C89.1246 95.3335 88.4371 96.8019 87.1029 97.8859C86.2025 98.6172 84.811 99.0248 85.4849 101.092H85.4822ZM87.7686 85.5689C85.0866 88.211 83.8506 93.1944 84.9474 96.6661C85.4113 98.1345 85.6213 98.1894 86.7182 97.1315C89.3238 94.6137 89.7985 89.61 87.7686 85.5689Z" fill="black"/>
<path d="M79.4583 60.3733C79.4344 59.4887 79.537 58.6273 79.692 57.7748C79.7755 57.3135 79.7636 56.6974 80.1882 56.566C80.608 56.4346 80.8751 56.9777 81.1351 57.3135C83.0171 59.7485 83.4369 62.8522 83.7446 66.0026C83.7636 66.1953 83.7875 66.3909 83.7708 66.5836C83.7183 67.188 84.1572 68.0435 83.6969 68.3325C83.1697 68.6654 82.5996 68.0201 82.1202 67.6114C80.0641 65.8449 79.5203 63.2405 79.4583 60.3733ZM83.1292 67.2931C83.1578 63.2113 82.1894 59.6989 80.5197 57.8419C79.4249 61.1763 80.9037 66.2245 83.1292 67.2931Z" fill="black"/>
<path d="M79.391 55.061C79.5403 56.9221 79.5231 56.9563 78.2708 58.0307C77.6907 57.0019 77.8917 56.3492 79.391 55.061Z" fill="black"/>
<path d="M107.945 92.1797C103.13 92.1378 98.6923 88.733 97.4771 84.1502C96.9301 82.0874 97.4336 81.5113 99.5563 81.9039C104.231 82.7664 107.702 85.415 110.008 89.6855C111.108 91.7227 110.844 92.1249 108.566 92.1797C108.358 92.1861 108.153 92.1797 107.945 92.1797ZM109.352 91.0501C109.045 86.5027 101.726 82.0874 98.1764 82.9209C98.944 88.1537 103.705 91.6132 109.352 91.0501Z" fill="black"/>
<path d="M104.697 78.8193C106.823 79.1357 109.113 82.9411 109.151 86.2436C107.718 83.7319 107.242 80.5497 104.697 78.8193Z" fill="black"/>
<path d="M104.693 93.6679C101.622 93.646 98.1438 91.5322 97.2726 89.2134C98.2839 90.0604 99.1312 91.0098 100.371 91.7104C101.646 92.4304 103.105 92.9454 104.697 93.6655L104.693 93.6679Z" fill="black"/>
<path d="M103.211 65.8448C103.099 67.2547 102.601 68.5004 101.548 69.4884C99.378 71.5268 96.644 72.3422 93.7949 72.8461C92.5027 73.0754 92.8193 72.0449 92.9459 71.456C93.4179 69.2506 94.7244 67.5435 96.4828 66.1478C97.8182 65.0889 99.4039 64.5595 101.016 64.1207C102.633 63.6819 103.226 64.183 103.211 65.842V65.8448ZM93.4841 72.1072C96.0281 71.6542 98.2211 71.1135 100.095 69.7008C101.37 68.741 102.063 67.4557 102.368 65.9184C102.593 64.7945 102.167 64.418 101.079 64.7067C97.2311 65.7288 94.7388 68.1182 93.4812 72.1072H93.4841Z" fill="black"/>
<path d="M103.212 71.3936C102.411 73.7758 97.9105 76.4274 95.788 75.7367C99.0318 75.5845 100.649 72.9417 103.212 71.3936Z" fill="black"/>
<path d="M97.2723 62.4849C95.3437 63.9765 93.5851 65.607 92.8299 68.4243C92.6404 65.9211 94.6971 63.2005 97.2723 62.4849Z" fill="black"/>
<path d="M67.9605 81.3778C69.9646 83.3837 72.6242 83.7216 75.2349 84.6622C72.2734 85.2679 67.5034 82.8936 66.2526 80.3733C65.991 79.8436 66.0025 79.7066 66.6235 79.5636C67.0146 79.4722 67.305 78.8969 67.6471 78.5469C70.9163 75.2168 76.8825 74.9429 80.4823 77.8711C81.2241 78.4769 80.9424 78.7813 80.4881 79.247C79.0361 80.7355 77.2994 81.7004 75.3097 81.9013C72.8514 82.1479 70.3642 82.3457 67.9634 81.3808L67.9605 81.3778ZM79.8756 78.4769C76.2672 75.9474 71.2268 76.2274 68.3573 78.9761C67.4372 79.8588 67.7938 80.2363 68.665 80.6198C71.4683 81.8557 77.6128 81.393 79.8756 78.4769Z" fill="black"/>
<path d="M67.5999 77.3339C67.1869 73.9406 72.1844 72.5278 76.485 72.9529C73.3745 74.0232 69.2004 72.9329 67.5999 77.3339Z" fill="black"/>
<path d="M114.483 58.0307C114.584 55.7899 114.363 53.8802 113.607 52.0913C115.164 53.5986 115.564 56.1211 114.483 58.0307Z" fill="black"/>
<path d="M112.996 59.5156C111.761 58.5403 111.912 57.5504 112.967 56.5459C113.749 57.5183 113.878 58.5053 112.996 59.5156Z" fill="black"/>
<path d="M40.848 58.1535C42.6389 57.81 44.161 58.1598 45.3026 59.5151C43.7176 59.3418 42.3527 58.5223 40.848 58.1535Z" fill="black"/>
<path d="M43.8187 61.7907C43.3324 62.9097 42.8427 62.4072 42.3339 62.1223C42.6817 60.7339 43.1074 60.6458 43.8187 61.7907Z" fill="black"/>
<path d="M55.6975 55.0605C55.689 54.2814 56.1266 53.7563 57.1822 53.5757C56.8633 54.17 56.1322 54.5313 55.6975 55.0605Z" fill="black"/>
<path d="M49.7583 56.5454C47.0852 55.8179 46.4156 54.8834 46.9674 53.5757C47.4655 54.5604 48.6923 55.3224 49.7583 56.5454Z" fill="black"/>
<path d="M64.6057 58.8412C63.6233 59.3592 62.6152 59.2033 61.636 59.5151C62.5064 57.8353 63.4984 57.5386 64.6057 58.8412Z" fill="black"/>
<path d="M45.3026 67.1401C43.5265 68.8186 42.2017 68.6202 40.848 67.8546C42.1223 67.1458 43.4074 66.6411 45.3026 67.1401Z" fill="black"/>
<path d="M49.7583 69.9102C48.7684 70.9001 47.7785 71.89 46.7886 72.8799C46.9456 71.2247 47.8187 70.1383 49.7583 69.9102Z" fill="black"/>
<path opacity="0.89" d="M150 75C150 116.421 116.421 150 75 150C33.5786 150 0 116.421 0 75C0 33.5786 33.5786 0 75 0C116.421 0 150 33.5786 150 75ZM10.574 75C10.574 110.582 39.4185 139.426 75 139.426C110.582 139.426 139.426 110.582 139.426 75C139.426 39.4185 110.582 10.574 75 10.574C39.4185 10.574 10.574 39.4185 10.574 75Z" fill="#B9C3A5"/>
<path d="M23.6573 20.3289C35.7782 8.9459 51.3383 1.91365 67.8914 0.337637C84.4446 -1.23838 101.052 2.73122 115.103 11.6224L109.508 20.4657C97.417 12.8152 83.1267 9.39946 68.8833 10.7556C54.6399 12.1117 41.251 18.1627 30.8214 27.9574L23.6573 20.3289Z" fill="#80A03C"/>
</svg>
